<?xml version="1.0" encoding="UTF-8"?> <svg xmlns="http://www.w3.org/2000/svg" width="23" height="26" viewBox="0 0 23 26" fill="none"><path d="M21.8216 15.3615L20.3083 14.2251C19.4462 13.5769 19.4462 12.2867 20.3083 11.6386L21.8216 10.5022C22.94 9.73046 23.5941 9.07633 22.2406 6.73107C20.872 4.36168 19.9767 4.639 18.7649 5.20874L17.0225 5.95031C16.0308 6.37233 14.9124 5.72724 14.7828 4.6571L14.5567 2.77605C14.4482 1.42255 14.207 0.530273 11.5 0.530273C8.79299 0.530273 8.55485 1.44365 8.44331 2.77605L8.21723 4.6571C8.08761 5.72724 6.96923 6.37233 5.97747 5.95031L4.2351 5.20874C3.01122 4.62694 2.11592 4.38881 0.759401 6.73107C-0.606159 9.10045 0.0781281 9.73649 1.17841 10.5022L2.69168 11.6386C3.55383 12.2867 3.55383 13.5769 2.69168 14.2251L1.17841 15.3615C0.0600413 16.1332 -0.591087 16.7874 0.759401 19.1326C2.12798 21.502 3.02328 21.2247 4.2351 20.655L5.97747 19.9134C6.96923 19.4914 8.08761 20.1365 8.21723 21.2066L8.44331 23.0876C8.55184 24.4411 8.79299 25.3334 11.5 25.3334C14.207 25.3334 14.4451 24.42 14.5567 23.0876L14.7828 21.2096C14.9124 20.1395 16.0308 19.4944 17.0225 19.9164L18.7649 20.658C19.9888 21.2398 20.8841 21.4779 22.2406 19.1356C23.6062 16.7663 22.9219 16.1302 21.8216 15.3645V15.3615ZM11.5 17.3933C8.85027 17.3933 7.03857 15.7715 7.03857 12.9318C7.03857 10.0922 8.85027 8.47041 11.5 8.47041C14.1497 8.47041 15.9614 10.0922 15.9614 12.9318C15.9614 15.7715 14.1497 17.3933 11.5 17.3933Z" fill="black"></path></svg> 