<?xml version="1.0" encoding="UTF-8"?> <svg xmlns="http://www.w3.org/2000/svg" width="32" height="32" viewBox="0 0 32 32" fill="none"><path opacity="0.35" d="M16 31C24.2843 31 31 24.2843 31 16C31 7.71573 24.2843 1 16 1C7.71573 1 1 7.71573 1 16C1 24.2843 7.71573 31 16 31Z" stroke="black" stroke-width="2" stroke-miterlimit="10" stroke-linecap="round"></path><path opacity="0.7" d="M8.43806 21.109C8.1984 21.109 8.00391 20.9145 8.00391 20.6749C8.00391 20.4352 8.1984 20.2407 8.43806 20.2407H19.7436C21.6544 20.2407 23.2095 18.6857 23.2095 16.7749C23.2095 14.864 21.6544 13.309 19.7436 13.309H15.5486V15.8116C15.5486 15.9471 15.4352 16.0301 15.3301 16.0301C15.2997 16.0301 15.2693 16.0236 15.2398 16.0098L8.77911 13.073C8.6602 13.0186 8.65098 12.9071 8.65098 12.8739C8.65098 12.8407 8.6602 12.7292 8.77911 12.6748L15.2398 9.73805C15.2693 9.72515 15.2997 9.71777 15.3301 9.71777C15.4352 9.71777 15.5486 9.80165 15.5486 9.93623V12.4388H19.7436C22.1338 12.4388 24.0778 14.3829 24.0778 16.773C24.0778 19.1632 22.1338 21.1072 19.7436 21.1072H8.43806V21.109Z" fill="black" stroke="black"></path></svg> 