<?xml version="1.0" encoding="UTF-8"?> <svg xmlns="http://www.w3.org/2000/svg" width="79" height="64" viewBox="0 0 79 64" fill="none"><path opacity="0.7" d="M67.897 21.7803C64.8481 21.7246 62.0985 23.0454 60.2034 25.1738C59.5716 25.8838 58.6754 26.284 57.7357 26.284H29.0075C25.875 26.284 23.2281 28.7935 23.1428 31.9938C23.0541 35.3142 25.661 38.0343 28.8892 38.0343H57.7374C58.6771 38.0343 59.5751 38.438 60.2068 39.148C62.0637 41.2311 64.7385 42.5381 67.7126 42.5381C73.4519 42.5381 77.9627 37.6706 77.7434 31.7537C77.5398 26.291 73.2448 21.876 67.897 21.7803Z" stroke="black" stroke-width="1.74026" stroke-miterlimit="10"></path><path opacity="0.7" d="M36.4599 30.2991H29.4658C28.4384 30.2991 27.6055 31.132 27.6055 32.1594C27.6055 33.1868 28.4384 34.0197 29.4658 34.0197H36.4599C37.4873 34.0197 38.3202 33.1868 38.3202 32.1594C38.3202 31.132 37.4873 30.2991 36.4599 30.2991Z" fill="black"></path><g opacity="0.35"><circle cx="17.5" cy="2.5" r="2.5" fill="black"></circle><circle cx="7.5" cy="15.5" r="2.5" fill="black"></circle><circle cx="2.5" cy="31.5" r="2.5" fill="black"></circle><circle cx="7.5" cy="47.5" r="2.5" fill="black"></circle><circle cx="17.5" cy="61.5" r="2.5" fill="black"></circle><rect x="12" y="47" width="8" height="1" rx="0.5" fill="black" stroke="black" stroke-width="1.3"></rect><rect x="22" y="61" width="8" height="1" rx="0.5" fill="black" stroke="black" stroke-width="1.3"></rect><rect x="12" y="15" width="8" height="1" rx="0.5" fill="black" stroke="black" stroke-width="1.3"></rect><rect x="7" y="31" width="8" height="1" rx="0.5" fill="black" stroke="black" stroke-width="1.3"></rect><rect x="22" y="2" width="8" height="1" rx="0.5" fill="black" stroke="black" stroke-width="1.3"></rect></g></svg> 