<?xml version="1.0" encoding="UTF-8"?> <svg xmlns="http://www.w3.org/2000/svg" width="20" height="21" viewBox="0 0 20 21" fill="none"><path d="M6.42572 0.46875H2.43121C0.565336 0.46875 0 1.1721 0 4.89589C0 8.61967 0.565336 9.32302 2.43121 9.32302H6.42572C8.2916 9.32302 8.85693 8.61967 8.85693 4.89589C8.85693 1.1721 8.2916 0.46875 6.42572 0.46875Z" fill="black"></path><path d="M17.5683 0.46875H13.5738C11.7079 0.46875 11.1426 1.1721 11.1426 4.89589C11.1426 8.61967 11.7079 9.32302 13.5738 9.32302H17.5683C19.4342 9.32302 19.9995 8.61967 19.9995 4.89589C19.9995 1.1721 19.4342 0.46875 17.5683 0.46875Z" fill="black"></path><path d="M6.42572 11.6108H2.43121C0.565336 11.6108 0 12.3142 0 16.038C0 19.7618 0.565336 20.4651 2.43121 20.4651H6.42572C8.2916 20.4651 8.85693 19.7618 8.85693 16.038C8.85693 12.3142 8.2916 11.6108 6.42572 11.6108Z" fill="black"></path><path d="M17.5683 11.6108H13.5738C11.7079 11.6108 11.1426 12.3142 11.1426 16.038C11.1426 19.7618 11.7079 20.4651 13.5738 20.4651H17.5683C19.4342 20.4651 19.9995 19.7618 19.9995 16.038C19.9995 12.3142 19.4342 11.6108 17.5683 11.6108Z" fill="black"></path></svg> 