<?xml version="1.0" encoding="UTF-8"?> <svg xmlns="http://www.w3.org/2000/svg" width="79" height="70" viewBox="0 0 79 70" fill="none"><path opacity="0.35" d="M39.2396 38.3745C38.8253 38.3745 38.4897 38.7101 38.4897 39.1244V48.7197H35.8413C35.4777 48.7197 35.2347 49.0955 35.3851 49.4277L38.7851 56.906C38.9634 57.2975 39.5175 57.2975 39.6958 56.906L43.0959 49.4277C43.2462 49.0973 43.0032 48.7197 42.6396 48.7197H39.9913V39.1244C39.9913 38.7101 39.6556 38.3745 39.2413 38.3745H39.2396Z" fill="black"></path><path opacity="0.7" d="M78.3545 60.1258C78.3178 60.0436 78.2706 59.9597 78.2129 59.8758C78.1657 59.8059 78.108 59.7359 78.0416 59.6625L69.24 50.1372C68.9463 49.8191 68.6124 49.5429 68.247 49.3121C67.9079 49.0988 67.5338 48.9223 67.1353 48.7877C66.7751 48.6653 66.3836 48.5744 65.9728 48.5167C65.6057 48.4643 65.2124 48.4381 64.8051 48.4381H48.6248C48.1545 48.4381 47.7752 48.8192 47.7752 49.2876C47.7752 49.7561 48.1563 50.1372 48.6248 50.1372H64.8051C65.1337 50.1372 65.4466 50.1582 65.735 50.1984C66.041 50.2421 66.3294 50.3085 66.5881 50.3959C66.8591 50.4886 67.1125 50.6074 67.3398 50.7508C67.5793 50.9011 67.7978 51.0829 67.9901 51.2892L76.6413 60.6572C76.6291 60.6642 76.6186 60.6712 76.6046 60.6782C76.5609 60.7009 76.512 60.7219 76.4613 60.7428C76.4228 60.7586 76.3826 60.7761 76.3372 60.7918C76.2026 60.8407 76.0575 60.8844 75.9037 60.9177C75.9019 60.9177 75.8984 60.9177 75.8967 60.9177C75.6117 60.9788 75.3146 61.012 75.0436 61.012H3.43674C3.16054 61.012 2.86337 60.9788 2.57493 60.9159C2.41935 60.8809 2.27426 60.8372 2.14141 60.79C2.09945 60.7743 2.06099 60.7586 2.02428 60.7428C1.97009 60.7201 1.9159 60.6974 1.87045 60.6729C1.85822 60.6659 1.84773 60.6607 1.83549 60.6537L10.4903 51.2874C10.6826 51.0794 10.9011 50.8976 11.1406 50.7473C11.3678 50.6039 11.6213 50.4851 11.8922 50.3924C12.1509 50.305 12.4394 50.2368 12.7453 50.1949C13.0337 50.1547 13.3466 50.1337 13.6753 50.1337H29.8556C30.3258 50.1337 30.7051 49.7526 30.7051 49.2841C30.7051 48.8157 30.3241 48.4346 29.8556 48.4346H13.6753C13.2662 48.4346 12.8729 48.4608 12.5076 48.5132C12.0968 48.5709 11.7052 48.6636 11.3451 48.7842C10.9465 48.9188 10.5742 49.0953 10.2333 49.3086C9.86795 49.5376 9.53406 49.8156 9.24039 50.1337L0.440518 59.6608C0.37409 59.7342 0.318152 59.8041 0.269205 59.8758C0.211518 59.958 0.166068 60.0401 0.125862 60.1258C0.0839081 60.2184 0.0541907 60.3093 0.0332136 60.4002C0.0104885 60.4981 0 60.5995 0 60.7009V62.7077C0 63.6429 0.915997 64.3631 2.44732 64.6323C2.78121 64.6918 3.11334 64.7215 3.43674 64.7215H75.0453C75.3687 64.7215 75.7009 64.6918 76.033 64.6323C77.5661 64.3614 78.4821 63.6429 78.4821 62.7077V60.7009C78.4821 60.5995 78.4698 60.4981 78.4489 60.4002C78.4279 60.3058 78.3947 60.2114 78.3562 60.1258H78.3545Z" fill="black"></path><path opacity="0.7" d="M72.6933 67.4297H5.78707C5.31683 67.4297 4.9375 67.8108 4.9375 68.2793C4.9375 68.7477 5.31858 69.1288 5.78707 69.1288H72.6933C73.1636 69.1288 73.5429 68.7477 73.5429 68.2793C73.5429 67.8108 73.1636 67.4297 72.6933 67.4297Z" fill="black"></path><path opacity="0.35" d="M11.3756 30.2775C12.3301 31.3858 13.5747 32.1846 14.9802 32.5902L27.2762 36.1353C28.0174 36.3486 28.7918 36.457 29.5662 36.457C29.984 36.457 30.4018 36.4255 30.8144 36.3626L46.0926 34.0079C47.853 33.7352 49.1221 32.1881 49.0451 30.4086C48.963 28.5294 47.4387 27.0767 45.5665 27.0767C45.5472 27.0767 45.528 27.0767 45.5088 27.0767L33.7284 27.2603C33.7284 27.2603 33.7144 27.2603 33.7074 27.2603C32.9837 27.2603 32.3964 26.6974 32.3649 25.9719C32.3352 25.2412 32.8806 24.6277 33.6095 24.5735L38.7174 24.1959L50.7827 25.2972C51.6952 25.3811 52.592 25.5839 53.4521 25.9038L66.5522 30.7722C66.9281 30.912 67.3161 30.9785 67.699 30.9785C68.8912 30.9785 70.0397 30.3369 70.6358 29.2461C70.7931 28.9577 70.8962 28.6518 70.9592 28.3353C71.1759 28.3756 71.3909 28.4018 71.6059 28.4018C73.0079 28.4018 74.3347 27.5767 74.9238 26.2376L74.95 26.1765C75.3451 25.2779 75.3556 24.285 74.978 23.3778C74.6004 22.4705 73.8855 21.78 72.9695 21.4322L56.7297 15.2404C54.8331 14.5167 52.842 14.1374 50.8107 14.1147L29.9578 13.8717C28.3058 13.8525 26.757 13.0291 25.8148 11.6708L17.9799 0.365966C17.7124 -0.0186134 17.1828 -0.116506 16.7964 0.150951C16.4101 0.418408 16.314 0.948078 16.5814 1.33441L24.4164 12.6393C25.6715 14.4503 27.736 15.5463 29.9386 15.5708L50.7915 15.8138C52.62 15.8348 54.4153 16.1757 56.1231 16.8277L72.3629 23.0194C72.8401 23.2012 73.2107 23.5613 73.4082 24.0333C73.6058 24.5053 73.6005 25.0227 73.3942 25.4895L73.3663 25.5506C72.9782 26.4317 71.994 26.8967 71.0798 26.6257L70.3805 26.4212C70.3805 26.4212 70.3788 26.4212 70.377 26.4212C66.0505 25.1573 58.2383 22.8936 54.8977 21.9251C53.7492 21.593 52.5623 21.4689 51.3701 21.5563L38.6598 22.495L33.4802 22.8778C31.83 22.9984 30.5906 24.3899 30.6623 26.0436C30.7322 27.6886 32.0625 28.9612 33.7022 28.9612C33.7197 28.9612 33.7354 28.9612 33.7529 28.9612L45.5332 28.7776C46.4929 28.7531 47.3023 29.5118 47.3443 30.4855C47.3845 31.3962 46.7342 32.1899 45.8322 32.3297L30.5521 34.6844C29.6204 34.8277 28.6485 34.7648 27.743 34.5043L15.4469 30.9592C14.3614 30.6463 13.3982 30.0275 12.6605 29.1727L2.43592 17.2927C2.12825 16.9361 1.59159 16.8959 1.23673 17.2035C0.880121 17.5094 0.841663 18.0461 1.14758 18.4027L11.3756 30.2792V30.2775ZM51.4977 23.2519C52.4871 23.1767 53.473 23.2816 54.4258 23.5578C57.6213 24.4843 64.9038 26.5943 69.3159 27.8826C69.295 28.0557 69.2443 28.2427 69.1411 28.4315C68.7548 29.1377 67.8965 29.4611 67.1431 29.1779L54.0429 24.3095C53.043 23.9389 51.9977 23.7012 50.9366 23.6033L49.0626 23.432L51.4977 23.2519Z" fill="black"></path></svg> 