<?xml version="1.0" encoding="UTF-8"?> <svg xmlns="http://www.w3.org/2000/svg" width="120" height="64" viewBox="0 0 120 64" fill="none"><path d="M14.5 51L105.5 13.5" stroke="black" stroke-width="1.3"></path><rect x="4.65" y="4.9" width="110.7" height="54.7" rx="4.35" stroke="black" stroke-width="1.3"></rect><rect x="0.65" y="0.65" width="118.7" height="62.7" rx="7.35" stroke="black" stroke-opacity="0.3" stroke-width="1.3"></rect><path d="M12.3673 53.5851C11.567 53.5783 11.0986 52.681 11.5504 52.0205L16.454 44.8516C17.0564 43.9708 18.4349 44.5198 18.2669 45.5736L17.6996 49.132C17.6301 49.5678 17.8546 49.9976 18.2519 50.1897L21.4968 51.7586C22.4575 52.2231 22.12 53.6679 21.053 53.6589L12.3673 53.5851Z" fill="black"></path><path d="M107.25 11.3399C108.05 11.3491 108.516 12.2478 108.062 12.9069L103.136 20.0607C102.531 20.9396 101.155 20.3864 101.326 19.3331L101.904 15.7764C101.975 15.3409 101.752 14.9103 101.355 14.717L98.115 13.1381C97.1558 12.6706 97.4977 11.2268 98.5647 11.2392L107.25 11.3399Z" fill="black"></path></svg> 