<?xml version="1.0" encoding="UTF-8"?> <svg xmlns="http://www.w3.org/2000/svg" id="_Слой_1" data-name="Слой 1" viewBox="0 0 1000 1000"><path fill="#a2a2a3" d="m770.55,324.97c3.34-14.24,4.75-28.63,4.75-43.31s-1.41-29.07-4.75-43.31l23.14-22.55c6.23-6.08,7.94-15.57,3.56-23.14l-28.48-49.84c-4.38-7.56-13.65-10.68-21.95-8.31l-31.45,8.9c-21.43-20.17-47.32-34.86-75.35-43.31l-7.71-32.04c-2.15-8.45-9.64-14.24-18.39-14.24h-56.96c-8.75,0-16.24,5.78-18.39,14.24l-7.71,32.04c-28.03,8.45-53.92,23.14-75.35,43.31l-31.45-8.9c-8.38-2.37-17.58.74-21.95,8.31l-28.48,49.84c-4.38,7.56-2.67,17.06,3.56,23.14l23.14,22.55c-3.34,14.17-4.75,28.63-4.75,43.31s1.41,29.15,4.75,43.31l-23.14,22.55c-6.23,6.08-7.94,15.57-3.56,23.14l28.48,49.84c4.38,7.56,13.57,10.61,21.95,8.31l31.45-8.9c21.43,20.17,47.32,34.86,75.35,43.31l7.71,32.04c2.08,8.45,9.64,14.24,18.39,14.24h56.96c8.75,0,16.24-5.78,18.39-14.24l7.71-32.04c28.03-8.45,53.92-23.14,75.35-43.31l31.45,8.9c8.31,2.45,17.58-.74,21.95-8.31l28.48-49.84c4.38-7.56,2.67-17.06-3.56-23.14l-23.14-22.55Zm-185.12,45.26c-49.24,0-88.57-39.32-88.57-88.57s39.32-88.57,88.57-88.57,88.57,39.32,88.57,88.57-39.32,88.57-88.57,88.57Z"></path><path fill="#a2a2a3" d="m466.77,666.72c3.34-14.24,4.75-28.63,4.75-43.31s-1.41-29.07-4.75-43.31l23.14-22.55c6.23-6.08,7.94-15.57,3.56-23.14l-28.48-49.84c-4.38-7.56-13.65-10.68-21.95-8.31l-31.45,8.9c-21.43-20.17-47.32-34.86-75.35-43.31l-7.71-32.04c-2.08-8.45-9.64-14.24-18.39-14.24h-56.96c-8.75,0-16.24,5.78-18.39,14.24l-7.71,32.04c-28.03,8.45-53.92,23.14-75.35,43.31l-31.45-8.9c-8.38-2.37-17.58.74-21.95,8.31l-28.48,49.84c-4.38,7.56-2.67,17.06,3.56,23.14l23.14,22.55c-3.34,14.17-4.75,28.63-4.75,43.31s1.41,29.15,4.75,43.31l-23.14,22.55c-6.23,6.08-7.94,15.57-3.56,23.14l28.48,49.84c4.38,7.56,13.57,10.61,21.95,8.31l31.45-8.9c21.43,20.17,47.32,34.86,75.35,43.31l7.71,32.04c2.08,8.45,9.64,14.24,18.39,14.24h56.96c8.75,0,16.24-5.78,18.39-14.24l7.71-32.04c28.03-8.45,53.92-23.14,75.35-43.31l31.45,8.9c8.31,2.45,17.58-.74,21.95-8.31l28.48-49.84c4.38-7.56,2.67-17.06-3.56-23.14l-23.14-22.55Zm-185.12,45.26c-49.24,0-88.57-39.32-88.57-88.57s39.32-88.57,88.57-88.57,88.57,39.32,88.57,88.57-39.32,88.57-88.57,88.57Z"></path><path fill="#a2a2a3" d="m742.09,515.51l6.53,27.13,3.36,13.94,13.73,4.14c24.55,7.4,47.18,20.4,65.44,37.58l10.31,9.71,13.63-3.86,27.44-7.77,23.54,41.19-20.06,19.54-10.12,9.86,3.22,13.75c2.75,11.73,4.09,24.04,4.09,37.61s-1.34,25.87-4.09,37.61l-3.22,13.75,10.12,9.86,20.06,19.54-23.54,41.19-27.44-7.77-13.63-3.86-10.31,9.71c-18.26,17.18-40.88,30.18-65.44,37.58l-13.73,4.14-3.36,13.94-6.53,27.13h-47.5l-6.53-27.13-3.36-13.94-13.73-4.14c-24.55-7.41-47.18-20.4-65.44-37.58l-10.31-9.71-13.63,3.86-27.44,7.77-23.54-41.19,20.06-19.54,10.13-9.87-3.24-13.77c-2.75-11.65-4.08-23.95-4.08-37.58s1.33-25.93,4.08-37.58l3.24-13.77-10.13-9.87-20.06-19.54,23.54-41.19,27.44,7.77,13.63,3.86,10.31-9.71c18.26-17.18,40.88-30.18,65.44-37.58l13.73-4.14,3.36-13.94,6.53-27.13h47.5m4.73-25h-56.96c-8.75,0-16.24,5.78-18.39,14.24l-7.71,32.04c-28.03,8.45-53.92,23.14-75.35,43.31l-31.45-8.9c-1.85-.52-3.74-.78-5.61-.78-6.6,0-12.93,3.19-16.34,9.09l-28.48,49.84c-4.38,7.56-2.67,17.06,3.56,23.14l23.14,22.55c-3.34,14.17-4.75,28.63-4.75,43.31s1.41,29.15,4.75,43.31l-23.14,22.55c-6.23,6.08-7.94,15.57-3.56,23.14l28.48,49.84c3.42,5.91,9.78,9.06,16.39,9.06,1.85,0,3.73-.25,5.56-.75l31.45-8.9c21.43,20.17,47.32,34.86,75.35,43.31l7.71,32.04c2.08,8.45,9.64,14.24,18.39,14.24h56.96c8.75,0,16.24-5.78,18.39-14.24l7.71-32.04c28.03-8.45,53.92-23.14,75.35-43.31l31.45,8.9c1.85.54,3.75.81,5.63.81,6.57,0,12.92-3.24,16.33-9.12l28.48-49.84c4.38-7.56,2.67-17.06-3.56-23.14l-23.14-22.55c3.34-14.24,4.75-28.63,4.75-43.31s-1.41-29.07-4.75-43.31l23.14-22.55c6.23-6.08,7.94-15.57,3.56-23.14l-28.48-49.84c-3.41-5.89-9.79-9.09-16.37-9.09-1.87,0-3.75.26-5.58.78l-31.45,8.9c-21.43-20.17-47.32-34.86-75.35-43.31l-7.71-32.04c-2.08-8.45-9.64-14.24-18.39-14.24h0Z"></path><path fill="#a2a2a3" d="m718.34,642.12c20.38,0,39.53,7.92,53.92,22.31,14.39,14.39,22.31,33.53,22.31,53.92s-7.92,39.53-22.31,53.92c-14.39,14.39-33.53,22.31-53.92,22.31s-39.53-7.92-53.92-22.31c-14.39-14.39-22.31-33.53-22.31-53.92s7.92-39.53,22.31-53.92c14.39-14.39,33.53-22.31,53.92-22.31m0-25c-55.95,0-101.22,45.27-101.22,101.22s45.27,101.22,101.22,101.22,101.22-45.27,101.22-101.22-45.27-101.22-101.22-101.22h0Z"></path></svg> 