<?xml version="1.0" encoding="UTF-8"?> <svg xmlns="http://www.w3.org/2000/svg" width="300" height="189" viewBox="0 0 300 189" fill="none"><path fill-rule="evenodd" clip-rule="evenodd" d="M110.249 0C133.103 0 152.895 13.1138 162.509 32.2273C172.516 25.3528 184.634 21.3296 197.692 21.3296C227.152 21.3296 251.829 41.808 258.264 69.3063C282.172 77.717 299.31 100.498 299.31 127.282C299.31 160.519 272.919 187.592 239.949 188.689V188.721H238.47C238.269 188.723 238.069 188.724 237.868 188.724C237.749 188.724 237.631 188.724 237.512 188.723C237.43 188.722 237.348 188.722 237.267 188.721H67.0945C30.0392 188.721 0 158.682 0 121.626C0 89.8241 22.1263 63.1895 51.8244 56.2773C52.9745 25.0017 78.6918 0 110.249 0ZM98.6552 115.517C99.6303 114.542 100.172 113.348 100.172 111.724C100.172 110.1 99.6303 108.799 98.6552 107.932C97.6801 107.064 96.2714 106.631 94.5366 106.631H89.3352V116.926H94.5366C96.2714 116.926 97.6801 116.492 98.6552 115.517ZM89.3322 123.97H94.8597V123.972C96.8098 123.972 98.3263 124.514 99.5197 125.489C100.602 126.572 101.144 127.98 101.144 129.823C101.144 131.665 100.602 133.074 99.5197 134.157C98.434 135.132 96.9175 135.673 94.9674 135.673H89.3322V123.97ZM233.464 88.427H62.7838C49.1297 88.427 43.71 98.5039 43.71 121.155C43.71 143.806 49.1297 153.775 62.7838 153.775H233.464C247.118 153.775 252.538 143.698 252.538 121.155C252.538 98.6115 247.229 88.427 233.464 88.427ZM108.298 136.867C106.997 138.817 105.265 140.226 102.989 141.309C100.713 142.391 98.2215 142.825 95.1857 142.825H80.6642V99.4789H94.6443C97.5695 99.4789 100.064 99.9126 102.23 100.888C104.398 101.863 106.022 103.164 107.323 104.788C108.517 106.412 109.166 108.365 109.166 110.639C109.166 112.263 108.84 113.782 108.298 115.08C107.757 116.381 106.782 117.356 105.696 118.224C104.613 119.091 103.312 119.525 101.904 119.74V119.848C103.528 119.956 104.939 120.608 106.238 121.583C107.539 122.558 108.514 123.751 109.163 125.268C109.812 126.784 110.246 128.411 110.246 130.361C110.138 132.853 109.486 135.021 108.295 136.864L108.298 136.867ZM144.601 130.149C144.601 134.268 143.3 137.519 140.808 139.903C138.316 142.287 134.739 143.48 130.297 143.48C125.856 143.48 122.386 142.287 119.895 139.903C117.403 137.519 116.102 134.268 116.102 130.149V99.4818H124.988V130.149C124.988 131.991 125.422 133.4 126.397 134.375C127.372 135.35 128.673 135.784 130.408 135.784C132.032 135.784 133.333 135.35 134.308 134.375C135.283 133.4 135.717 131.991 135.717 130.149V99.4818H144.604V130.149H144.601ZM179.279 137.408C178.085 139.358 176.353 140.875 174.077 141.85C171.801 142.933 169.202 143.474 166.166 143.474C163.13 143.474 160.423 142.933 158.147 141.85C155.871 140.767 154.139 139.248 152.838 137.298C151.537 135.347 150.995 133.071 150.995 130.361H159.663C159.663 131.986 160.205 133.287 161.398 134.262C162.592 135.237 164.108 135.671 166.166 135.671C168.116 135.671 169.633 135.237 170.718 134.262C171.801 133.287 172.342 132.093 172.342 130.577C172.342 129.383 172.016 128.193 171.26 127.218C170.5 126.243 169.525 125.594 168.116 125.268L162.807 123.967C159.448 123.207 156.738 121.583 154.68 119.307C152.622 117.03 151.647 114.321 151.647 111.069C151.647 108.467 152.189 106.302 153.382 104.459C154.465 102.617 156.092 101.1 158.258 100.125C160.426 99.15 162.918 98.6086 165.843 98.6086C168.768 98.6086 171.263 99.15 173.428 100.125C175.597 101.1 177.221 102.617 178.414 104.459C179.608 106.302 180.149 108.578 180.149 111.069H171.481C171.481 109.553 170.939 108.359 169.964 107.492C168.989 106.625 167.581 106.191 165.846 106.191C164.111 106.191 162.813 106.625 161.835 107.492C160.86 108.359 160.426 109.442 160.426 110.851C160.426 112.044 160.752 112.909 161.509 113.669C162.269 114.428 163.244 114.862 164.545 115.185L169.962 116.486C173.428 117.246 176.138 118.87 178.088 121.362C180.038 123.853 181.121 126.889 181.121 130.463C181.121 133.173 180.472 135.449 179.279 137.4V137.408ZM206.153 127.439V142.936H197.267V127.439L184.803 99.4789H194.123L199.651 112.592C200.192 113.893 200.733 115.301 201.059 116.71C201.493 118.119 201.819 119.42 201.927 120.288C201.997 120.005 202.067 119.689 202.145 119.338L202.146 119.336L202.146 119.335C202.308 118.608 202.502 117.734 202.794 116.71C203.032 115.602 203.385 114.61 203.728 113.648L203.728 113.647C203.854 113.292 203.978 112.942 204.095 112.592L209.404 99.4789H218.724L206.153 127.439ZM88.7938 74.6652C93.8875 74.6652 95.5117 76.2894 95.5117 81.3831V83.3333H66.7947V81.3831C66.7947 76.2894 68.4189 74.6652 73.5126 74.6652H88.7938ZM229.779 81.3831C229.779 76.2894 228.155 74.6652 223.061 74.6652H207.457C202.363 74.6652 200.739 76.2894 200.739 81.3831V83.3333H229.782V81.3831H229.779ZM180.69 73.1488C185.784 73.1488 187.408 74.7729 187.408 79.8667V83.3333H108.843V79.8667C108.843 74.7729 110.575 73.1488 115.561 73.1488H180.69Z" fill="black"></path></svg> 