<?xml version="1.0" encoding="UTF-8"?> <svg xmlns="http://www.w3.org/2000/svg" id="_Слой_1" data-name="Слой 1" viewBox="0 0 1000 1000"><defs><style> .cls-1, .cls-2 { fill: #a2a2a3 } .cls-1, .cls-2, .cls-3 { stroke: #a2a2a3; stroke-miterlimit: 10; } .cls-1, .cls-3 { stroke-width: 25px; } .cls-2 { stroke-width: 30px; } .cls-3 { fill: none; } </style></defs><line fill="#a2a2a3" class="cls-2" x1="412.82" y1="48.24" x2="587.18" y2="48.24"></line><rect fill="#a2a2a3" x="449.78" y="57.35" width="99.34" height="55.14"></rect><line class="cls-1" x1="777.46" y1="154.47" x2="845.53" y2="222.54" fill="#a2a2a3"></line><line class="cls-1" x1="500" y1="124.04" x2="500" y2="188.51" fill="#a2a2a3"></line><line class="cls-1" x1="127.84" y1="500" x2="188.51" y2="500"></line><line class="cls-1" x1="500" y1="872.16" x2="500" y2="811.49"></line><line class="cls-1" x1="878.52" y1="500" x2="811.49" y2="500" fill="#a2a2a3"></line><circle fill="#a2a2a3" cx="500" cy="500" r="43.43"></circle><line class="cls-1" x1="581.15" y1="547.48" x2="246.69" y2="354.38"></line><g><path class="cls-3" d="m166.47,308.07c66.46-115.24,190.93-192.81,333.53-192.81,212.49,0,384.75,172.26,384.75,384.75,0,70.29-18.85,136.17-51.77,192.87" fill="#a2a2a3"></path><path class="cls-3" d="m166.47,308.07c-32.58,56.49-51.22,122.03-51.22,191.93,0,212.49,172.26,384.75,384.75,384.75,142.2,0,266.38-77.15,332.98-191.87" fill="#a2a2a3"></path></g><path d="m223.16,294.54c27.45-36.86,62.4-68.35,101.87-91.65,41.02-24.22,87.38-39.75,134.98-45.31v273.25l-236.84-136.3Z" fill="#a2a2a3"></path></svg> 