<?xml version="1.0" encoding="UTF-8"?> <svg xmlns="http://www.w3.org/2000/svg" width="530" height="233" viewBox="0 0 530 233" fill="none"><path d="M530 47H0V20C0 8.95431 8.95431 0 20 0H510C521.046 0 530 8.95431 530 20V47Z" fill="white"></path><rect x="-0.5" y="0.5" width="529" height="232" rx="19.5" transform="matrix(-1 0 0 1 529 0)" stroke="black"></rect><line x1="4.37114e-08" y1="47.5" x2="530" y2="47.5" stroke="black"></line><path d="M498.182 19.4739L510.5 31.7918" stroke="black" stroke-opacity="0.3"></path><path d="M510.5 19.4739L498.182 31.7918" stroke="black" stroke-opacity="0.3"></path><rect x="477.779" y="20.3472" width="10.9446" height="10.9446" stroke="black" stroke-opacity="0.3"></rect><mask id="path-7-inside-1_864_680" fill="white"><path d="M456.376 19.8472H468.321V31.7918H456.376V19.8472Z"></path></mask><path d="M468.321 30.7918H456.376V32.7918H468.321V30.7918Z" fill="black" fill-opacity="0.3" mask="url(#path-7-inside-1_864_680)"></path></svg> 