<?xml version="1.0" encoding="UTF-8"?> <svg xmlns="http://www.w3.org/2000/svg" width="29" height="34" viewBox="0 0 29 34" fill="none"><path d="M27.115 24.7917C27.3146 24.3074 26.7564 23.8601 26.3239 24.1559C23.1449 26.3405 18.7535 27.3238 14.0959 27.3238C9.43826 27.3238 5.16879 26.3664 2.00088 24.2446C1.56469 23.9526 1.01391 24.4035 1.21352 24.8878C3.25769 29.7561 7.78222 33.0534 14.1439 33.0534C20.5056 33.0534 25.0893 29.7117 27.115 24.7917Z" fill="black"></path><path d="M8.03147 7.6099C8.73751 7.56555 9.53965 7.62099 10.29 7.77255C10.5081 7.81691 10.5673 8.09784 10.3972 8.24201C9.15152 9.31399 8.23848 10.5967 7.62486 12.0679C7.41785 12.5854 7.77642 12.9809 8.12758 13.2434C8.57856 13.5798 9.11825 13.65 9.51008 13.0438C10.0867 12.1012 10.9406 11.1881 11.8721 10.5819C12.2011 10.3564 12.5449 10.1679 12.8998 10.0126C13.0587 9.9424 13.2509 10.0459 13.2768 10.2196C13.4949 11.6132 13.469 13.1695 13.3951 14.4595C13.3397 14.9733 13.8091 15.1914 14.3229 15.3319C15.7831 15.6646 15.6611 14.0455 15.9198 13.0881C16.0714 12.2897 16.2045 11.4949 16.2784 10.6965C16.2969 10.5043 16.5039 10.386 16.6702 10.4784C17.7274 11.0735 18.6442 11.9274 19.3095 12.9292C19.6607 13.5613 20.2891 13.4947 20.7659 13.2286C21.1726 12.9994 21.4757 12.6556 21.2687 12.0679C20.7031 10.6115 19.8049 9.3103 18.67 8.26419C18.5111 8.11632 18.5702 7.84648 18.7846 7.79843C19.4352 7.65796 20.1006 7.59142 20.7364 7.60251C21.3241 7.65796 21.6753 7.24395 21.716 6.53792C21.7899 5.2885 20.1745 5.27741 19.2652 5.12215C18.0342 4.99647 16.7404 5.05562 15.5169 5.36612C15.4467 2.44588 14.0309 1.00794 12.3786 0.0912058C11.4988 -0.352375 10.826 0.941403 11.691 1.41086C13.0661 2.36086 13.6723 3.71748 13.6169 5.58052C13.591 5.57313 13.5615 5.55834 13.5319 5.55095C11.5949 4.97429 9.64685 4.99278 7.69509 5.50659C7.11474 5.66554 7.01863 6.12391 7.06669 6.59706C7.11844 7.10718 7.3661 7.63208 8.02038 7.60621L8.03147 7.6099Z" fill="black"></path><path d="M0.742998 21.6562C1.21245 22.0443 1.75584 22.425 2.36946 22.7873C2.6467 22.9536 3.00526 22.754 3.00526 22.4287V21.8595C3.00526 21.3124 3.31946 21.0869 3.99593 21.0869C4.67239 21.0869 4.98659 21.3124 4.98659 21.8595C4.98659 21.8595 4.98659 22.9167 4.98659 23.5636C4.98659 23.863 5.16772 24.1328 5.44496 24.2363C6.13251 24.4914 6.86072 24.7206 7.6259 24.9202C7.85508 24.9793 8.08426 24.8019 8.08426 24.5653V23.5414C8.08426 22.9943 8.38738 22.7688 9.07493 22.7688C9.76248 22.7688 10.0656 22.9943 10.0656 23.5414V24.7945C10.0656 25.1567 10.3317 25.4709 10.6903 25.5153C11.278 25.5929 11.8843 25.6521 12.5016 25.689C12.8638 25.7112 13.1633 25.4229 13.1633 25.0606V21.8521C13.1633 21.305 13.4775 21.0795 14.1539 21.0795C14.8304 21.0795 15.1446 21.305 15.1446 21.8521V25.0532C15.1446 25.4155 15.444 25.7038 15.8063 25.678C16.4236 25.6373 17.0298 25.5781 17.6176 25.4968C17.9761 25.4488 18.2386 25.1346 18.2386 24.776V23.534C18.2386 22.9869 18.5528 22.7614 19.2292 22.7614C19.9057 22.7614 20.2199 22.9869 20.2199 23.534V24.532C20.2199 24.7686 20.4491 24.946 20.6783 24.8869C21.4434 24.6836 22.168 24.4507 22.8518 24.192C23.1327 24.0848 23.3139 23.8149 23.3139 23.5118V21.8484C23.3139 21.3013 23.6281 21.0758 24.3045 21.0758C24.981 21.0758 25.2952 21.3013 25.2952 21.8484V22.3585C25.2952 22.6838 25.6501 22.8871 25.931 22.7171C26.5557 22.34 27.1102 21.9408 27.5796 21.5416C27.9345 21.2421 28.1637 20.8207 28.2118 20.3587C28.2746 19.7598 28.3042 19.1536 28.3042 18.5326C28.3042 13.7826 26.2711 10.5481 22.9849 8.66292C22.704 8.50028 22.3602 8.54833 22.0903 8.72577C22.0903 8.72577 22.0829 8.72946 22.0792 8.73316C21.7244 8.96604 21.6357 9.46137 21.8575 9.82363C22.9738 11.6386 23.4359 13.424 21.51 14.5145C21.0627 14.7696 20.5785 14.9026 20.109 14.9026C19.0999 14.9026 18.6045 14.4332 18.1794 13.8861C17.9022 13.5312 17.344 13.6532 17.2516 14.0931C16.9189 15.6715 16.4199 16.8544 14.6899 16.8544C14.4681 16.8544 14.2389 16.8285 14.0024 16.7731C13.9802 16.7694 13.958 16.762 13.9358 16.7546C12.0432 16.2297 11.8843 15.1799 11.9212 13.8787C11.936 13.3649 11.2817 13.1357 10.9786 13.5497C10.4094 14.326 9.93991 14.9766 8.79399 14.9766C8.2617 14.9766 7.7257 14.788 7.24146 14.4295C5.55216 13.1727 5.94399 11.6127 7.02337 9.91974C7.26734 9.5353 7.18971 9.0067 6.80158 8.77382C6.71656 8.72577 6.63893 8.66662 6.5613 8.60748C6.29515 8.39678 5.9329 8.32654 5.63348 8.48549C2.14767 10.3522 0 13.6495 0 18.5437C0 19.2017 0.0332686 19.8523 0.103502 20.4844C0.151557 20.9427 0.388133 21.3604 0.746695 21.6562H0.742998Z" fill="black"></path></svg> 