<?xml version="1.0" encoding="UTF-8"?> <svg xmlns="http://www.w3.org/2000/svg" width="29" height="29" viewBox="0 0 29 29" fill="none"><path d="M9.0326 0H3.41754C0.794689 0 0 0.988695 0 6.2232C0 11.4577 0.794689 12.4464 3.41754 12.4464H9.0326C11.6554 12.4464 12.4501 11.4577 12.4501 6.2232C12.4501 0.988695 11.6554 0 9.0326 0Z" fill="black"></path><path d="M24.6964 0.000244141H19.0814C16.4585 0.000244141 15.6638 0.988939 15.6638 6.22344C15.6638 11.4579 16.4585 12.4466 19.0814 12.4466H24.6964C27.3193 12.4466 28.114 11.4579 28.114 6.22344C28.114 0.988939 27.3193 0.000244141 24.6964 0.000244141Z" fill="black"></path><path d="M9.0326 15.6624H3.41754C0.794689 15.6624 0 16.651 0 21.8856C0 27.1201 0.794689 28.1087 3.41754 28.1087H9.0326C11.6554 28.1087 12.4501 27.1201 12.4501 21.8856C12.4501 16.651 11.6554 15.6624 9.0326 15.6624Z" fill="black"></path><path d="M24.6964 15.6624H19.0814C16.4585 15.6624 15.6638 16.651 15.6638 21.8856C15.6638 27.1201 16.4585 28.1087 19.0814 28.1087H24.6964C27.3193 28.1087 28.114 27.1201 28.114 21.8856C28.114 16.651 27.3193 15.6624 24.6964 15.6624Z" fill="black"></path></svg> 