<?xml version="1.0" encoding="UTF-8"?> <svg xmlns="http://www.w3.org/2000/svg" xmlns:xlink="http://www.w3.org/1999/xlink" version="1.1" id="flipper_x5F_devices_x5F_logo" x="0px" y="0px" viewBox="0 0 283 54" style="enable-background:new 0 0 283 54;" xml:space="preserve"> <style type="text/css"> .st0{fill:#FFFFFF;} </style> <g> <rect x="44.8" y="53.1" class="st0" width="0.9" height="0.9"></rect> <rect x="43" y="53.1" class="st0" width="0.9" height="0.9"></rect> <rect x="43.9" y="52.2" class="st0" width="0.9" height="0.9"></rect> <rect x="42.1" y="52.2" class="st0" width="0.9" height="0.9"></rect> <rect x="40.3" y="52.2" class="st0" width="0.9" height="0.9"></rect> <rect x="41.2" y="51.3" class="st0" width="0.9" height="0.9"></rect> <rect x="39.4" y="51.3" class="st0" width="0.9" height="0.9"></rect> <rect x="38.4" y="50.3" class="st0" width="0.9" height="0.9"></rect> <path class="st0" d="M53.1,37.5c-0.8,0-1.9,0-2.7,0v0.9c1.5,0,3.1,0,4.6,0v-0.9C54.5,37.5,53.5,37.5,53.1,37.5z"></path> <path class="st0" d="M25.6,37.5h-0.9v0.9c0.5,0,1.4,0,1.8,0v-0.9H25.6z"></path> <rect x="7.3" y="37.5" class="st0" width="0.9" height="0.9"></rect> <rect x="5.5" y="37.5" class="st0" width="0.9" height="0.9"></rect> <rect x="3.7" y="37.5" class="st0" width="0.9" height="0.9"></rect> <path class="st0" d="M56.7,36.6h-0.9v-0.9c-0.5,0-1.4,0-1.8,0v0.9h0.9v0.9c1.1,0,2.5,0,3.7,0v-0.9C58.1,36.6,57.2,36.6,56.7,36.6z"></path> <rect x="23.8" y="36.6" class="st0" width="0.9" height="0.9"></rect> <rect x="8.2" y="36.6" class="st0" width="0.9" height="0.9"></rect> <rect x="6.4" y="36.6" class="st0" width="0.9" height="0.9"></rect> <rect x="4.6" y="36.6" class="st0" width="0.9" height="0.9"></rect> <rect x="2.7" y="36.6" class="st0" width="0.9" height="0.9"></rect> <path class="st0" d="M59.5,35.7h-0.9v0.9c0.8,0,1.9,0,2.7,0v-0.9C60.9,35.7,59.9,35.7,59.5,35.7z"></path> <rect x="9.2" y="35.7" class="st0" width="0.9" height="0.9"></rect> <rect x="7.3" y="35.7" class="st0" width="0.9" height="0.9"></rect> <rect x="5.5" y="35.7" class="st0" width="0.9" height="0.9"></rect> <rect x="3.7" y="35.7" class="st0" width="0.9" height="0.9"></rect> <rect x="1.8" y="35.7" class="st0" width="0.9" height="0.9"></rect> <path class="st0" d="M61.3,34.8v0.9c0.5,0,1.4,0,1.8,0v-0.9C62.7,34.8,61.8,34.8,61.3,34.8z"></path> <path class="st0" d="M53.1,35.7H54v-0.9c-0.5,0-1.4,0-1.8,0v0.9H53.1z"></path> <rect x="8.2" y="34.8" class="st0" width="0.9" height="0.9"></rect> <rect x="6.4" y="34.8" class="st0" width="0.9" height="0.9"></rect> <rect x="4.6" y="34.8" class="st0" width="0.9" height="0.9"></rect> <rect x="2.7" y="34.8" class="st0" width="0.9" height="0.9"></rect> <rect x="0.9" y="34.8" class="st0" width="0.9" height="0.9"></rect> <rect x="7.3" y="33.9" class="st0" width="0.9" height="0.9"></rect> <rect x="5.5" y="33.9" class="st0" width="0.9" height="0.9"></rect> <rect x="3.7" y="33.9" class="st0" width="0.9" height="0.9"></rect> <rect x="1.8" y="33.9" class="st0" width="0.9" height="0.9"></rect> <path class="st0" d="M144.6,18.4c-5.8,0-11.5,0-17.3,0c0-0.5,0-1.3,0-1.9c0.5,0,1.3,0,1.9,0c0-1.2,0-2.5,0-3.7c0.5,0,1.3,0,1.9,0 c0-1.2,0-2.5,0-3.7c0.5,0,1.3,0,1.9,0c0-1.8,0-3.7,0-5.6c-1.2,0-2.5,0-3.7,0c0,1.2,0,2.5,0,3.7c-0.5,0-1.3,0-1.9,0 c0,1.2,0,2.5,0,3.7c-0.5,0-1.3,0-1.9,0c0,1.2,0,2.5,0,3.7c-0.5,0-1.3,0-1.9,0c0,1.2,0,2.5,0,3.7c-0.5,0-1.3,0-1.9,0 c0,1.2,0,2.5,0,3.7c7.4,0,14.8,0,22.2,0c0-0.5,0-1.3,0-1.9c0.5,0,1.3,0,1.9,0c0-0.5,0-1.3,0-1.9C145.5,18.4,144.9,18.4,144.6,18.4z "></path> <path class="st0" d="M65,32.9c-5.2,0-10.4,0-15.6,0V32h0.9v-0.9h0.9v-0.9h0.9v-0.9h0.9v-0.9H54v-0.9h0.9v-0.9h0.9v-0.9h0.9v-0.9 h0.9v-0.9h0.9v-0.9h0.9V22h0.9v-0.9h0.9v-0.9h0.9v-0.9h0.9v-0.9h0.9c0-1.1,0-2.5,0-3.7h-0.9v-0.9c-0.8,0-1.9,0-2.7,0v-0.9 c-2.7,0-5.5,0-8.2,0v0.9c-0.5,0-1.4,0-1.8,0v0.9c-0.5,0-1.4,0-1.8,0v0.9c-0.5,0-1.4,0-1.8,0v-0.9h-0.9c0-0.5,0-1.4,0-1.8h-0.9 c0-0.5,0-1.4,0-1.8h-0.9v-0.9H43V9.2h-0.9V8.2h-0.9V7.3c-0.5,0-1.4,0-1.8,0V6.4c-0.5,0-1.4,0-1.8,0V5.5c-0.8,0-1.9,0-2.7,0V4.6 c-1.5,0-3.1,0-4.6,0V3.7c-4.6,0-9.2,0-13.7,0v0.9c-1.1,0-2.5,0-3.7,0v0.9c-0.8,0-1.9,0-2.7,0v0.9H9.2v0.9c-0.5,0-1.4,0-1.8,0v0.9 c-0.5,0-1.4,0-1.8,0v0.9H4.6v0.9H3.7V11H2.7v0.9H1.8v0.9H0.9c0,0.5,0,1.4,0,1.8H0c0,0.8,0,1.9,0,2.7h0.9c0-0.5,0-1.4,0-1.8h0.9 c0-0.5,0-1.4,0-1.8h0.9v-0.9h0.9v-0.9h0.9V11h0.9v-0.9h0.9V9.2c0.5,0,1.4,0,1.8,0V8.2c0.5,0,1.4,0,1.8,0V7.3c3.6,0,7.3,0,11,0V6.4 c-2.4,0-4.9,0-7.3,0V5.5c1.1,0,2.5,0,3.7,0V4.6c3.9,0,8,0,11.9,0v0.9h0.9v0.9h0.9V5.5H32v0.9c1.5,0,3.1,0,4.6,0c0,0.5,0,1.4,0,1.8 c1.1,0,2.5,0,3.7,0v0.9h0.9v0.9h0.9V11H43v0.9h0.9c0,0.8,0,1.9,0,2.7H43v0.9c0.8,0,1.9,0,2.7,0c0,0.5,0,1.4,0,1.8 c0.5,0,1.4,0,1.8,0v-0.9c0.5,0,1.4,0,1.8,0v-0.9c0.5,0,1.4,0,1.8,0v-0.9c0.5,0,1.4,0,1.8,0v-0.9c2.1,0,4.3,0,6.4,0v0.9 c0.8,0,1.9,0,2.7,0v0.9h0.9v0.9c-1.1,0-2.5,0-3.7,0v0.9c-0.8,0-1.9,0-2.7,0v0.9c-0.5,0-1.4,0-1.8,0v0.9c-0.5,0-1.4,0-1.8,0v0.9 h-0.9v0.9h-0.9V22h-0.9v0.9h-0.9v0.9h-0.9v0.9h-0.9v0.9h-0.9v0.9h-0.9v0.9h-0.9v0.9h-0.9v0.9H43v0.9h-0.9v0.9h-0.9V32h-0.9v0.9 h-0.9v0.9h-0.9v0.9h-0.9v0.9c-0.5,0-1.4,0-1.8,0v0.9c-0.5,0-1.4,0-1.8,0v0.9c-0.8,0-1.9,0-2.7,0v0.9c-1.5,0-3.1,0-4.6,0v0.9 c7.9,0,15.9,0,23.8,0v-0.9c-3.6,0-7.3,0-11,0c0-0.5,0-1.4,0-1.8h0.9v-0.9h0.9v-0.9h0.9v-0.9c2.1,0,4.3,0,6.4,0v0.9 c1.1,0,2.5,0,3.7,0v-0.9c3.6,0,7.3,0,11,0v0.9c0.5,0,1.4,0,1.8,0c0,0.8,0,1.9,0,2.7h-0.9v0.9h-0.9v0.9h-0.9v0.9h-0.9v0.9 c-0.5,0-1.4,0-1.8,0v0.9c-0.8,0-1.9,0-2.7,0V43c-0.8,0-1.9,0-2.7,0v0.9c-0.8,0-1.9,0-2.7,0v0.9c-1.1,0-2.5,0-3.7,0v0.9 c-1.1,0-2.5,0-3.7,0v0.9c-0.8,0-1.9,0-2.7,0v0.9c-0.5,0-1.4,0-1.8,0v0.9c-0.5,0-1.4,0-1.8,0c0,0.5,0,1.4,0,1.8h0.9v-0.9h0.9v0.9 h0.9v0.9h0.9v-0.9h0.9v0.9H43v0.9h0.9v-0.9h0.9v0.9h0.9v0.9h0.9V54c0.5,0,1.4,0,1.8,0c0-0.8,0-1.9,0-2.7h-0.9c0-1.1,0-2.5,0-3.7 h0.9c0-0.5,0-1.4,0-1.8c1.1,0,2.5,0,3.7,0v-0.9c0.8,0,1.9,0,2.7,0v-0.9c0.8,0,1.9,0,2.7,0V43c0.8,0,1.9,0,2.7,0v-0.9 c0.5,0,1.4,0,1.8,0v-0.9h0.9v-0.9h0.9v-0.9H65v-0.9h0.9c0-1.5,0-3.1,0-4.6H65V32.9z"></path> <rect x="6.4" y="32.9" class="st0" width="0.9" height="0.9"></rect> <rect x="4.6" y="32.9" class="st0" width="0.9" height="0.9"></rect> <rect x="2.7" y="32.9" class="st0" width="0.9" height="0.9"></rect> <rect x="0.9" y="32.9" class="st0" width="0.9" height="0.9"></rect> <rect x="5.5" y="32" class="st0" width="0.9" height="0.9"></rect> <rect x="3.7" y="32" class="st0" width="0.9" height="0.9"></rect> <rect x="1.8" y="32" class="st0" width="0.9" height="0.9"></rect> <rect x="10.1" y="31.1" class="st0" width="0.9" height="0.9"></rect> <path class="st0" d="M6.4,31.1V32h0.9v0.9h0.9v0.9h0.9v0.9h0.9v0.9H11v0.9h0.9c0-0.8,0-1.9,0-2.7h0.9c0-0.5,0-1.4,0-1.8 c-0.5,0-1.4,0-1.8,0c0,0.5,0,1.4,0,1.8h-0.9v-0.9H9.2V32H8.2c0-0.5,0-1.4,0-1.8H7.3v0.9H6.4z"></path> <rect x="4.6" y="31.1" class="st0" width="0.9" height="0.9"></rect> <rect x="2.7" y="31.1" class="st0" width="0.9" height="0.9"></rect> <rect x="0.9" y="31.1" class="st0" width="0.9" height="0.9"></rect> <rect x="5.5" y="30.2" class="st0" width="0.9" height="0.9"></rect> <rect x="3.7" y="30.2" class="st0" width="0.9" height="0.9"></rect> <rect x="1.8" y="30.2" class="st0" width="0.9" height="0.9"></rect> <path class="st0" d="M10.1,29.3H9.2c0,0.5,0,1.4,0,1.8h0.9C10.1,30.7,10.1,29.7,10.1,29.3z"></path> <rect x="4.6" y="29.3" class="st0" width="0.9" height="0.9"></rect> <rect x="2.7" y="29.3" class="st0" width="0.9" height="0.9"></rect> <path class="st0" d="M22.9,28.4c0-1.5,0-3.1,0-4.6H22c0-0.5,0-1.4,0-1.8h-0.9v-0.9c-0.5,0-1.4,0-1.8,0v-0.9c-1.5,0-3.1,0-4.6,0v0.9 c-0.5,0-1.4,0-1.8,0V22h-0.9c0,0.5,0,1.4,0,1.8H11c0,1.5,0,3.1,0,4.6h0.9c0,0.5,0,1.4,0,1.8h0.9c0,0.5,0,1.4,0,1.8h0.9v-0.9 c0.5,0,1.4,0,1.8,0v-0.9c0.8,0,1.9,0,2.7,0v-0.9c1.8,0,3.7,0,5.5,0v-0.9H22.9z M14.6,24.7v-0.9c0.5,0,1.4,0,1.8,0 c0,0.5,0,1.4,0,1.8c-0.5,0-1.4,0-1.8,0V24.7z"></path> <rect x="3.7" y="28.4" class="st0" width="0.9" height="0.9"></rect> <path class="st0" d="M27.5,27.5c0-1.8,0-3.7,0-5.5h-0.9c0,2.1,0,4.3,0,6.4c0.8,0,1.9,0,2.7,0v-0.9C28.8,27.5,27.9,27.5,27.5,27.5z"></path> <path class="st0" d="M9.2,27.5c0-1.5,0-3.1,0-4.6H8.2c0,2.1,0,4.3,0,6.4h0.9C9.2,28.8,9.2,27.9,9.2,27.5z"></path> <path class="st0" d="M115.4,44.1c0-2.2,0-4.5,0-6.8c-0.5,0-1.3,0-1.9,0c0-0.5,0-1.3,0-1.9c-0.5,0-1.3,0-1.9,0c0-0.5,0-1.3,0-1.9 c-6.2,0-12.4,0-18.5,0c0,1.2,0,2.5,0,3.7c-0.5,0-1.3,0-1.9,0c0,1.2,0,2.5,0,3.7c-0.5,0-1.3,0-1.9,0c0,1.2,0,2.5,0,3.7 c-0.5,0-1.3,0-1.9,0c0,1.2,0,2.5,0,3.7c-0.5,0-1.3,0-1.9,0c0,1.2,0,2.5,0,3.7c6.8,0,13.6,0,20.4,0c0-0.5,0-1.3,0-1.9 c1.2,0,2.5,0,3.7,0c0-0.5,0-1.3,0-1.9c0.5,0,1.3,0,1.9,0c0-0.5,0-1.3,0-1.9c0.5,0,1.3,0,1.9,0c0-0.5,0-1.3,0-1.9c0.5,0,1.3,0,1.9,0 V44.1z M111.6,42.9c-0.5,0-1.3,0-1.9,0c0,0.5,0,1.3,0,1.9c-0.5,0-1.3,0-1.9,0c0,0.5,0,1.3,0,1.9c-1.2,0-2.5,0-3.7,0 c0,0.5,0,1.3,0,1.9c-4.3,0-8.7,0-13,0c0-0.5,0-1.3,0-1.9c0.5,0,1.3,0,1.9,0c0-1.2,0-2.5,0-3.7c0.5,0,1.3,0,1.9,0c0-1.2,0-2.5,0-3.7 c0.5,0,1.3,0,1.9,0c0-0.5,0-1.3,0-1.9c4.3,0,8.7,0,13,0c0,0.5,0,1.3,0,1.9c0.5,0,1.3,0,1.9,0C111.6,40.4,111.6,41.7,111.6,42.9z"></path> <path class="st0" d="M29.3,26.5v0.9c0.5,0,1.4,0,1.8,0v-0.9C30.7,26.5,29.7,26.5,29.3,26.5z"></path> <path class="st0" d="M31.1,25.6v0.9c0.5,0,1.4,0,1.8,0v-0.9C32.5,25.6,31.6,25.6,31.1,25.6z"></path> <path class="st0" d="M32.9,24.7v0.9c0.5,0,1.4,0,1.8,0v-0.9C34.3,24.7,33.4,24.7,32.9,24.7z"></path> <path class="st0" d="M183.9,42.3c0-1,0-2.1,0-3.1c0.5,0,1.3,0,1.9,0c0-1.8,0-3.7,0-5.6c-1.2,0-2.5,0-3.7,0c0,1.2,0,2.5,0,3.7 c-0.5,0-1.3,0-1.9,0c0,1.2,0,2.5,0,3.7c-0.5,0-1.3,0-1.9,0c0,1.2,0,2.5,0,3.7c-0.5,0-1.3,0-1.9,0c0,1.2,0,2.5,0,3.7 c-0.5,0-1.3,0-1.9,0c0,1.2,0,2.5,0,3.7c1.2,0,2.5,0,3.7,0c0-0.5,0-1.3,0-1.9c0.5,0,1.3,0,1.9,0c0-1.2,0-2.5,0-3.7 c0.5,0,1.3,0,1.9,0c0-1.2,0-2.5,0-3.7c0.5,0,1.3,0,1.9,0V42.3z"></path> <path class="st0" d="M158.8,12.2c0-1,0-2.1,0-3.1c0.5,0,1.3,0,1.9,0c0-1.8,0-3.7,0-5.6c-1.2,0-2.5,0-3.7,0c0,1.2,0,2.5,0,3.7 c-0.5,0-1.3,0-1.9,0c0,1.2,0,2.5,0,3.7c-0.5,0-1.3,0-1.9,0c0,1.2,0,2.5,0,3.7c-0.5,0-1.3,0-1.9,0c0,1.2,0,2.5,0,3.7 c-0.5,0-1.3,0-1.9,0c0,1.2,0,2.5,0,3.7c1.2,0,2.5,0,3.7,0c0-0.5,0-1.3,0-1.9c0.5,0,1.3,0,1.9,0c0-1.2,0-2.5,0-3.7 c0.5,0,1.3,0,1.9,0c0-1.2,0-2.5,0-3.7c0.5,0,1.3,0,1.9,0V12.2z"></path> <path class="st0" d="M34.8,23.8v0.9c0.5,0,1.4,0,1.8,0v-0.9C36.2,23.8,35.2,23.8,34.8,23.8z"></path> <path class="st0" d="M24.7,24.7c0,1.5,0,3.1,0,4.6h-0.9v0.9c0.5,0,1.4,0,1.8,0c0-2.4,0-4.9,0-7.3h-0.9 C24.7,23.3,24.7,24.3,24.7,24.7z"></path> <rect x="36.6" y="22.9" class="st0" width="0.9" height="0.9"></rect> <path class="st0" d="M37.5,22v0.9c0.5,0,1.4,0,1.8,0V22C38.9,22,38,22,37.5,22z"></path> <path class="st0" d="M23.8,22.9h0.9c0-0.5,0-1.4,0-1.8h-0.9C23.8,21.5,23.8,22.4,23.8,22.9z"></path> <path class="st0" d="M10.1,22v-0.9H9.2c0,0.5,0,1.4,0,1.8h0.9V22z"></path> <path class="st0" d="M6.4,22.9c0,1.8,0,3.7,0,5.5H5.5v0.9h0.9v0.9h0.9c0-2.7,0-5.5,0-8.2H6.4V22.9z"></path> <path class="st0" d="M218.1,10.4c0-0.3,0-0.9,0-1.2c0.5,0,1.3,0,1.9,0c0-0.5,0-1.3,0-1.9c0.5,0,1.3,0,1.9,0c0-1.2,0-2.5,0-3.7 c-8.6,0-17.3,0-25.9,0c0,1.2,0,2.5,0,3.7c-0.5,0-1.3,0-1.9,0c0,1.2,0,2.5,0,3.7c-0.5,0-1.3,0-1.9,0c0,1.2,0,2.5,0,3.7 c-0.5,0-1.3,0-1.9,0c0,1.2,0,2.5,0,3.7c-0.5,0-1.3,0-1.9,0c0,1.2,0,2.5,0,3.7c1.2,0,2.5,0,3.7,0c0-0.5,0-1.3,0-1.9 c0.5,0,1.3,0,1.9,0c0-1.2,0-2.5,0-3.7c0.5,0,1.3,0,1.9,0c0-0.5,0-1.3,0-1.9c6.2,0,12.4,0,18.5,0c0-0.5,0-1.3,0-1.9 c0.5,0,1.3,0,1.9,0c0-0.5,0-1.3,0-1.9c0.5,0,1.3,0,1.9,0V10.4z M214.4,9.1c-0.5,0-1.3,0-1.9,0c0,0.5,0,1.3,0,1.9 c-4.9,0-9.9,0-14.8,0c0-0.5,0-1.3,0-1.9c0.5,0,1.3,0,1.9,0c0-0.5,0-1.3,0-1.9c4.9,0,9.9,0,14.8,0C214.4,7.8,214.4,8.6,214.4,9.1z"></path> <path class="st0" d="M188.5,10.4c0-0.3,0-0.9,0-1.2c0.5,0,1.3,0,1.9,0c0-0.5,0-1.3,0-1.9c0.5,0,1.3,0,1.9,0c0-1.2,0-2.5,0-3.7 c-8.6,0-17.3,0-25.9,0c0,1.2,0,2.5,0,3.7c-0.5,0-1.3,0-1.9,0c0,1.2,0,2.5,0,3.7c-0.5,0-1.3,0-1.9,0c0,1.2,0,2.5,0,3.7 c-0.5,0-1.3,0-1.9,0c0,1.2,0,2.5,0,3.7c-0.5,0-1.3,0-1.9,0c0,1.2,0,2.5,0,3.7c1.2,0,2.5,0,3.7,0c0-0.5,0-1.3,0-1.9 c0.5,0,1.3,0,1.9,0c0-1.2,0-2.5,0-3.7c0.5,0,1.3,0,1.9,0c0-0.5,0-1.3,0-1.9c6.2,0,12.4,0,18.5,0c0-0.5,0-1.3,0-1.9 c0.5,0,1.3,0,1.9,0c0-0.5,0-1.3,0-1.9c0.5,0,1.3,0,1.9,0V10.4z M184.7,9.1c-0.5,0-1.3,0-1.9,0c0,0.5,0,1.3,0,1.9 c-4.9,0-9.9,0-14.8,0c0-0.5,0-1.3,0-1.9c0.5,0,1.3,0,1.9,0c0-0.5,0-1.3,0-1.9c4.9,0,9.9,0,14.8,0C184.7,7.8,184.7,8.6,184.7,9.1z"></path> <rect x="39.4" y="21.1" class="st0" width="0.9" height="0.9"></rect> <path class="st0" d="M40.3,20.1v0.9c0.5,0,1.4,0,1.8,0v-0.9C41.6,20.1,40.7,20.1,40.3,20.1z"></path> <path class="st0" d="M33.9,20.1c-0.5,0-1.4,0-1.8,0v0.9c1.1,0,2.5,0,3.7,0v-0.9C35.2,20.1,34.3,20.1,33.9,20.1z"></path> <path class="st0" d="M26.5,20.1h-0.9c0,0.5,0,1.4,0,1.8h0.9C26.5,21.5,26.5,20.6,26.5,20.1z"></path> <rect x="22.9" y="20.1" class="st0" width="0.9" height="0.9"></rect> <rect x="10.1" y="20.1" class="st0" width="0.9" height="0.9"></rect> <path class="st0" d="M7.3,21.1V22h0.9c0-0.5,0-1.4,0-1.8H7.3V21.1z"></path> <rect x="42.1" y="19.2" class="st0" width="0.9" height="0.9"></rect> <path class="st0" d="M35.7,19.2v0.9c0.5,0,1.4,0,1.8,0v-0.9C37.1,19.2,36.2,19.2,35.7,19.2z"></path> <rect x="31.1" y="19.2" class="st0" width="0.9" height="0.9"></rect> <rect x="24.7" y="19.2" class="st0" width="0.9" height="0.9"></rect> <rect x="22" y="19.2" class="st0" width="0.9" height="0.9"></rect> <rect x="11" y="19.2" class="st0" width="0.9" height="0.9"></rect> <rect x="8.2" y="19.2" class="st0" width="0.9" height="0.9"></rect> <path class="st0" d="M175.3,39.2c0.3,0,0.9,0,1.2,0c0-0.5,0-1.3,0-1.9c0.5,0,1.3,0,1.9,0c0-1.2,0-2.5,0-3.7c-1.2,0-2.5,0-3.7,0 c0,0.5,0,1.3,0,1.9c-1.2,0-2.5,0-3.7,0c0,0.5,0,1.3,0,1.9c-0.5,0-1.3,0-1.9,0c0,0.5,0,1.3,0,1.9c-1.2,0-2.5,0-3.7,0 c0,0.5,0,1.3,0,1.9c-0.5,0-1.3,0-1.9,0c0,0.5,0,1.3,0,1.9c-1.2,0-2.5,0-3.7,0c0,0.5,0,1.3,0,1.9c-0.5,0-1.3,0-1.9,0 c0,0.5,0,1.3,0,1.9c-1.2,0-2.5,0-3.7,0c0,0.5,0,1.3,0,1.9c-1.2,0-2.5,0-3.7,0c0-0.5,0-1.3,0-1.9c0.5,0,1.3,0,1.9,0 c0-1.2,0-2.5,0-3.7c0.5,0,1.3,0,1.9,0c0-1.2,0-2.5,0-3.7c0.5,0,1.3,0,1.9,0c0-1.8,0-3.7,0-5.6c-1.2,0-2.5,0-3.7,0 c0,1.2,0,2.5,0,3.7c-0.5,0-1.3,0-1.9,0c0,1.2,0,2.5,0,3.7c-0.5,0-1.3,0-1.9,0c0,1.2,0,2.5,0,3.7c-0.5,0-1.3,0-1.9,0 c0,1.2,0,2.5,0,3.7c-0.5,0-1.3,0-1.9,0c0,1.2,0,2.5,0,3.7c3.7,0,7.4,0,11.1,0c0-0.5,0-1.3,0-1.9c1.2,0,2.5,0,3.7,0 c0-0.5,0-1.3,0-1.9c0.5,0,1.3,0,1.9,0c0-0.5,0-1.3,0-1.9c1.2,0,2.5,0,3.7,0c0-0.5,0-1.3,0-1.9c0.5,0,1.3,0,1.9,0c0-0.5,0-1.3,0-1.9 c1.2,0,2.5,0,3.7,0c0-0.5,0-1.3,0-1.9c0.5,0,1.3,0,1.9,0c0-0.5,0-1.3,0-1.9C173.6,39.2,174.5,39.2,175.3,39.2z"></path> <path class="st0" d="M43,18.3v0.9c0.5,0,1.4,0,1.8,0v-0.9C44.4,18.3,43.5,18.3,43,18.3z"></path> <path class="st0" d="M37.5,18.3v0.9c0.5,0,1.4,0,1.8,0v-0.9C38.9,18.3,38,18.3,37.5,18.3z"></path> <rect x="30.2" y="18.3" class="st0" width="0.9" height="0.9"></rect> <rect x="23.8" y="18.3" class="st0" width="0.9" height="0.9"></rect> <path class="st0" d="M21.1,19.2H22v-0.9c-0.5,0-1.4,0-1.8,0v0.9H21.1z"></path> <path class="st0" d="M13.7,19.2v-0.9c-0.5,0-1.4,0-1.8,0v0.9C12.4,19.2,13.3,19.2,13.7,19.2z"></path> <rect x="9.2" y="18.3" class="st0" width="0.9" height="0.9"></rect> <rect x="44.8" y="17.4" class="st0" width="0.9" height="0.9"></rect> <rect x="39.4" y="17.4" class="st0" width="0.9" height="0.9"></rect> <path class="st0" d="M15.6,18.3c1.5,0,3.1,0,4.6,0v-0.9c-2.1,0-4.3,0-6.4,0v0.9C14.2,18.3,15.1,18.3,15.6,18.3z"></path> <rect x="10.1" y="17.4" class="st0" width="0.9" height="0.9"></rect> <path class="st0" d="M40.3,16.5v0.9c0.5,0,1.4,0,1.8,0v-0.9C41.6,16.5,40.7,16.5,40.3,16.5z"></path> <rect x="35.7" y="16.5" class="st0" width="0.9" height="0.9"></rect> <path class="st0" d="M30.2,16.5v-0.9h-0.9c0,0.8,0,1.9,0,2.7h0.9C30.2,17.8,30.2,16.9,30.2,16.5z"></path> <path class="st0" d="M24.7,17.4c0-0.5,0-1.4,0-1.8h-0.9v0.9h-0.9v-0.9H22v-0.9h-0.9v0.9c-2.7,0-5.5,0-8.2,0v0.9c2.7,0,5.5,0,8.2,0 v0.9c0.5,0,1.4,0,1.8,0v0.9h0.9v-0.9H24.7z"></path> <path class="st0" d="M11,16.5v0.9c0.5,0,1.4,0,1.8,0v-0.9C12.4,16.5,11.4,16.5,11,16.5z"></path> <path class="st0" d="M242,37.4c1,0,2.1,0,3.1,0c0-0.5,0-1.3,0-1.9c0.5,0,1.3,0,1.9,0c0-0.5,0-1.3,0-1.9c-8.6,0-17.3,0-25.9,0 c0,1.2,0,2.5,0,3.7c-0.5,0-1.3,0-1.9,0c0,1.2,0,2.5,0,3.7c-0.5,0-1.3,0-1.9,0c0,1.2,0,2.5,0,3.7c-0.5,0-1.3,0-1.9,0 c0,1.2,0,2.5,0,3.7c-0.5,0-1.3,0-1.9,0c0,1.2,0,2.5,0,3.7c8,0,16.1,0,24.1,0c0-0.5,0-1.3,0-1.9c0.5,0,1.3,0,1.9,0 c0-0.5,0-1.3,0-1.9c-6.8,0-13.6,0-20.4,0c0-0.5,0-1.3,0-1.9c0.5,0,1.3,0,1.9,0c0-0.5,0-1.3,0-1.9c5.6,0,11.1,0,16.7,0 c0-0.5,0-1.3,0-1.9c0.5,0,1.3,0,1.9,0c0-0.5,0-1.3,0-1.9c-5.6,0-11.1,0-16.7,0c0-0.5,0-1.3,0-1.9c0.5,0,1.3,0,1.9,0 c0-0.5,0-1.3,0-1.9C230.4,37.4,236.2,37.4,242,37.4z"></path> <path class="st0" d="M214.2,37.4c0.3,0,0.9,0,1.2,0c0-0.5,0-1.3,0-1.9c0.5,0,1.3,0,1.9,0c0-0.5,0-1.3,0-1.9c-8.6,0-17.3,0-25.9,0 c0,1.2,0,2.5,0,3.7c-0.5,0-1.3,0-1.9,0c0,1.2,0,2.5,0,3.7c-0.5,0-1.3,0-1.9,0c0,1.2,0,2.5,0,3.7c-0.5,0-1.3,0-1.9,0 c0,1.2,0,2.5,0,3.7c-0.5,0-1.3,0-1.9,0c0,1.2,0,2.5,0,3.7c8,0,16.1,0,24.1,0c0-0.5,0-1.3,0-1.9c0.5,0,1.3,0,1.9,0 c0-0.5,0-1.3,0-1.9c-6.8,0-13.6,0-20.4,0c0-0.5,0-1.3,0-1.9c0.5,0,1.3,0,1.9,0c0-1.2,0-2.5,0-3.7c0.5,0,1.3,0,1.9,0 c0-1.2,0-2.5,0-3.7c0.5,0,1.3,0,1.9,0c0-0.5,0-1.3,0-1.9C201.4,37.4,207.8,37.4,214.2,37.4z"></path> <path class="st0" d="M145.6,37.4c0.3,0,0.9,0,1.2,0c0-0.5,0-1.3,0-1.9c0.5,0,1.3,0,1.9,0c0-0.5,0-1.3,0-1.9c-8.6,0-17.3,0-25.9,0 c0,1.2,0,2.5,0,3.7c-0.5,0-1.3,0-1.9,0c0,1.2,0,2.5,0,3.7c-0.5,0-1.3,0-1.9,0c0,1.2,0,2.5,0,3.7c-0.5,0-1.3,0-1.9,0 c0,1.2,0,2.5,0,3.7c-0.5,0-1.3,0-1.9,0c0,1.2,0,2.5,0,3.7c8,0,16.1,0,24.1,0c0-0.5,0-1.3,0-1.9c0.5,0,1.3,0,1.9,0 c0-0.5,0-1.3,0-1.9c-6.8,0-13.6,0-20.4,0c0-0.5,0-1.3,0-1.9c0.5,0,1.3,0,1.9,0c0-0.5,0-1.3,0-1.9c5.6,0,11.1,0,16.7,0 c0-0.5,0-1.3,0-1.9c0.5,0,1.3,0,1.9,0c0-0.5,0-1.3,0-1.9c-5.6,0-11.1,0-16.7,0c0-0.5,0-1.3,0-1.9c0.5,0,1.3,0,1.9,0 c0-0.5,0-1.3,0-1.9C132.8,37.4,139.2,37.4,145.6,37.4z"></path> <path class="st0" d="M248.4,7.3c0.3,0,0.9,0,1.2,0c0-0.5,0-1.3,0-1.9c0.5,0,1.3,0,1.9,0c0-0.5,0-1.3,0-1.9c-8.6,0-17.3,0-25.9,0 c0,1.2,0,2.5,0,3.7c-0.5,0-1.3,0-1.9,0c0,1.2,0,2.5,0,3.7c-0.5,0-1.3,0-1.9,0c0,1.2,0,2.5,0,3.7c-0.5,0-1.3,0-1.9,0 c0,1.2,0,2.5,0,3.7c-0.5,0-1.3,0-1.9,0c0,1.2,0,2.5,0,3.7c8,0,16.1,0,24.1,0c0-0.5,0-1.3,0-1.9c0.5,0,1.3,0,1.9,0 c0-0.5,0-1.3,0-1.9c-6.8,0-13.6,0-20.4,0c0-0.5,0-1.3,0-1.9c0.5,0,1.3,0,1.9,0c0-0.5,0-1.3,0-1.9c5.6,0,11.1,0,16.7,0 c0-0.5,0-1.3,0-1.9c0.5,0,1.3,0,1.9,0c0-0.5,0-1.3,0-1.9c-5.6,0-11.1,0-16.7,0c0-0.5,0-1.3,0-1.9c0.5,0,1.3,0,1.9,0 c0-0.5,0-1.3,0-1.9C235.6,7.3,242,7.3,248.4,7.3z"></path> <path class="st0" d="M122.4,7.3c0.3,0,0.9,0,1.2,0c0-0.5,0-1.3,0-1.9c0.5,0,1.3,0,1.9,0c0-0.5,0-1.3,0-1.9c-9.3,0-18.5,0-27.8,0 c0,1.2,0,2.5,0,3.7c-0.5,0-1.3,0-1.9,0c0,1.2,0,2.5,0,3.7c-0.5,0-1.3,0-1.9,0c0,1.2,0,2.5,0,3.7c-0.5,0-1.3,0-1.9,0 c0,1.2,0,2.5,0,3.7c-0.5,0-1.3,0-1.9,0c0,1.2,0,2.5,0,3.7c-0.5,0-1.3,0-1.9,0c0,1.2,0,2.5,0,3.7c1.2,0,2.5,0,3.7,0 c0-0.5,0-1.3,0-1.9c0.5,0,1.3,0,1.9,0c0-1.2,0-2.5,0-3.7c0.5,0,1.3,0,1.9,0c0-1.2,0-2.5,0-3.7c0.5,0,1.3,0,1.9,0c0-0.5,0-1.3,0-1.9 c5.6,0,11.1,0,16.7,0c0-0.5,0-1.3,0-1.9c0.5,0,1.3,0,1.9,0c0-0.5,0-1.3,0-1.9c-5.6,0-11.1,0-16.7,0c0-0.5,0-1.3,0-1.9 c0.5,0,1.3,0,1.9,0c0-0.5,0-1.3,0-1.9C108.4,7.3,115.4,7.3,122.4,7.3z"></path> <rect x="42.1" y="15.6" class="st0" width="0.9" height="0.9"></rect> <rect x="34.8" y="15.6" class="st0" width="0.9" height="0.9"></rect> <rect x="38.4" y="14.6" class="st0" width="0.9" height="0.9"></rect> <rect x="33.9" y="14.6" class="st0" width="0.9" height="0.9"></rect> <path class="st0" d="M31.1,14.6v-0.9h-0.9c0,0.5,0,1.4,0,1.8h0.9V14.6z"></path> <rect x="22.9" y="14.6" class="st0" width="0.9" height="0.9"></rect> <rect x="37.5" y="13.7" class="st0" width="0.9" height="0.9"></rect> <rect x="22" y="13.7" class="st0" width="0.9" height="0.9"></rect> <rect x="41.2" y="12.8" class="st0" width="0.9" height="0.9"></rect> <rect x="36.6" y="12.8" class="st0" width="0.9" height="0.9"></rect> <rect x="31.1" y="12.8" class="st0" width="0.9" height="0.9"></rect> <rect x="22.9" y="12.8" class="st0" width="0.9" height="0.9"></rect> <rect x="40.3" y="11.9" class="st0" width="0.9" height="0.9"></rect> <rect x="35.7" y="11.9" class="st0" width="0.9" height="0.9"></rect> <rect x="32" y="11.9" class="st0" width="0.9" height="0.9"></rect> <path class="st0" d="M25.6,12.8h-0.9v0.9h-0.9v0.9h0.9v0.9h0.9c0-0.5,0-1.4,0-1.8h0.9c0-0.5,0-1.4,0-1.8h-0.9V12.8z"></path> <rect x="23.8" y="11.9" class="st0" width="0.9" height="0.9"></rect> <rect x="22" y="11.9" class="st0" width="0.9" height="0.9"></rect> <path class="st0" d="M274.1,33.6c-7.8,0-15.7,0-23.5,0c0,0.5,0,1.3,0,1.9c-0.5,0-1.3,0-1.9,0c0,0.5,0,1.3,0,1.9c-0.5,0-1.3,0-1.9,0 c0,1.8,0,3.7,0,5.6c0.5,0,1.3,0,1.9,0c0,0.5,0,1.3,0,1.9c5.6,0,11.1,0,16.7,0c0,0.5,0,1.3,0,1.9c-1.2,0-2.5,0-3.7,0 c0,0.5,0,1.3,0,1.9c-6.8,0-13.6,0-20.4,0c0,1.2,0,2.5,0,3.7c8,0,16.1,0,24.1,0c0-0.5,0-1.3,0-1.9c0.5,0,1.3,0,1.9,0 c0-0.5,0-1.3,0-1.9c0.5,0,1.3,0,1.9,0c0-1.8,0-3.7,0-5.6c-0.5,0-1.3,0-1.9,0c0-0.5,0-1.3,0-1.9c-4.9,0-9.9,0-14.8,0 c0-0.5,0-1.3,0-1.9c0.5,0,1.3,0,1.9,0c0-0.5,0-1.3,0-1.9c6.2,0,12.4,0,18.5,0c0-0.5,0-1.3,0-1.9c0.5,0,1.3,0,1.9,0 c0-0.5,0-1.3,0-1.9H274.1z"></path> <path class="st0" d="M281.7,3.6c-8.8,0-17.7,0-26.6,0c0,1.2,0,2.5,0,3.7c-0.5,0-1.3,0-1.9,0c0,1.2,0,2.5,0,3.7c-0.5,0-1.3,0-1.9,0 c0,1.2,0,2.5,0,3.7c-0.5,0-1.3,0-1.9,0c0,1.2,0,2.5,0,3.7c-0.5,0-1.3,0-1.9,0c0,1.2,0,2.5,0,3.7c1.2,0,2.5,0,3.7,0 c0-0.5,0-1.3,0-1.9c0.5,0,1.3,0,1.9,0c0-1.2,0-2.5,0-3.7c0.5,0,1.3,0,1.9,0c0-0.5,0-1.3,0-1.9c4.3,0,8.7,0,13,0c0,0.5,0,1.3,0,1.9 c0.5,0,1.3,0,1.9,0c0,0.5,0,1.3,0,1.9c0.5,0,1.3,0,1.9,0c0,0.5,0,1.3,0,1.9c0.5,0,1.3,0,1.9,0c0,0.5,0,1.3,0,1.9c0.5,0,1.3,0,1.9,0 c0,0.5,0,1.3,0,1.9c0.5,0,1.3,0,1.9,0c0,0.5,0,1.3,0,1.9c1.2,0,2.5,0,3.7,0c0-1.2,0-2.5,0-3.7c-0.5,0-1.3,0-1.9,0 c0-0.5,0-1.3,0-1.9c-0.5,0-1.3,0-1.9,0c0-0.5,0-1.3,0-1.9c-0.5,0-1.3,0-1.9,0c0-0.5,0-1.3,0-1.9c-0.5,0-1.3,0-1.9,0 c0-1.2,0-2.5,0-3.7c0.5,0,1.3,0,1.9,0c0-0.5,0-1.3,0-1.9c0.5,0,1.3,0,1.9,0c0-0.5,0-1.3,0-1.9c0.5,0,1.3,0,1.9,0c0-0.5,0-1.3,0-1.9 c0.5,0,1.3,0,1.9,0c0-0.5,0-1.3,0-1.9c0.5,0,1.3,0,1.9,0c0-0.5,0-1.3,0-1.9C282.6,3.6,282,3.6,281.7,3.6z M273.7,9.1 c-0.5,0-1.3,0-1.9,0c0,0.5,0,1.3,0,1.9c-4.9,0-9.9,0-14.8,0c0-0.5,0-1.3,0-1.9c0.5,0,1.3,0,1.9,0c0-0.5,0-1.3,0-1.9 c4.9,0,9.9,0,14.8,0C273.7,7.8,273.7,8.6,273.7,9.1z"></path> <rect x="39.4" y="11" class="st0" width="0.9" height="0.9"></rect> <rect x="32.9" y="11" class="st0" width="0.9" height="0.9"></rect> <rect x="26.5" y="11" class="st0" width="0.9" height="0.9"></rect> <rect x="24.7" y="11" class="st0" width="0.9" height="0.9"></rect> <rect x="22.9" y="11" class="st0" width="0.9" height="0.9"></rect> <path class="st0" d="M73.2,10.1V9.2h-0.9V8.2h-0.9V7.3h-0.9V6.4h-0.9V5.5c-0.5,0-1.4,0-1.8,0V4.6c-0.8,0-1.9,0-2.7,0 C65,5,65,6,65,6.4c0.5,0,1.4,0,1.8,0v0.9c0.5,0,1.4,0,1.8,0v0.9h0.9v0.9h0.9v0.9h0.9c0,0.5,0,1.4,0,1.8h0.9c0,0.5,0,1.4,0,1.8 c0.5,0,1.4,0,1.8,0c0-0.8,0-1.9,0-2.7h-0.9V10.1z"></path> <path class="st0" d="M68.6,10.1h-0.9V9.2c-0.8,0-1.9,0-2.7,0c0,0.5,0,1.4,0,1.8c0.5,0,1.4,0,1.8,0v0.9h0.9c0,0.5,0,1.4,0,1.8 c0.5,0,1.4,0,1.8,0c0-0.8,0-1.9,0-2.7h-0.9V10.1z"></path> <rect x="38.4" y="10.1" class="st0" width="0.9" height="0.9"></rect> <rect x="33.9" y="10.1" class="st0" width="0.9" height="0.9"></rect> <rect x="25.6" y="10.1" class="st0" width="0.9" height="0.9"></rect> <rect x="23.8" y="10.1" class="st0" width="0.9" height="0.9"></rect> <path class="st0" d="M77.8,9.2V8.2h-0.9c0-0.5,0-1.4,0-1.8H76V5.5h-0.9V4.6h-0.9V3.7h-0.9V2.7h-0.9V1.8c-0.5,0-1.4,0-1.8,0V0.9 c-0.5,0-1.4,0-1.8,0V0c-1.1,0-2.5,0-3.7,0c0,0.5,0,1.4,0,1.8c0.8,0,1.9,0,2.7,0v0.9c0.5,0,1.4,0,1.8,0v0.9c0.5,0,1.4,0,1.8,0v0.9 h0.9v0.9h0.9v0.9h0.9v0.9h0.9c0,0.5,0,1.4,0,1.8H76c0,0.5,0,1.4,0,1.8h0.9c0,0.8,0,1.9,0,2.7c0.5,0,1.4,0,1.8,0c0-1.1,0-2.5,0-3.7 h-0.9V9.2z"></path> <rect x="34.8" y="9.2" class="st0" width="0.9" height="0.9"></rect> <path class="st0" d="M25.6,9.2h0.9V8.2c-0.8,0-1.9,0-2.7,0v0.9h0.9v0.9h0.9V9.2z"></path> <rect x="35.7" y="8.2" class="st0" width="0.9" height="0.9"></rect> <rect x="29.3" y="8.2" class="st0" width="0.9" height="0.9"></rect> <polygon class="st0" points="28.4,8.2 27.5,8.2 27.5,9.2 26.5,9.2 26.5,10.1 27.5,10.1 27.5,11 28.4,11 28.4,10.1 29.3,10.1 29.3,9.2 28.4,9.2 "></polygon> <rect x="30.2" y="7.3" class="st0" width="0.9" height="0.9"></rect> <rect x="28.4" y="7.3" class="st0" width="0.9" height="0.9"></rect> <path class="st0" d="M22.9,7.3c-0.5,0-1.4,0-1.8,0v0.9c0.8,0,1.9,0,2.7,0V7.3H22.9z"></path> <rect x="31.1" y="6.4" class="st0" width="0.9" height="0.9"></rect> <rect x="29.3" y="6.4" class="st0" width="0.9" height="0.9"></rect> </g> </svg> 