<?xml version="1.0" encoding="UTF-8"?> <svg xmlns="http://www.w3.org/2000/svg" width="210" height="81" viewBox="0 0 210 81" fill="none"><path fill-rule="evenodd" clip-rule="evenodd" d="M55.5 42.5999C56.5 41.5999 57 40.4 57 38.8C57 37.2 56.5 35.9 55.5 35C54.5 34.1 53.1 33.6999 51.4 33.6999H46.2V44H51.4C53.1 44 54.6 43.4999 55.5 42.5999ZM46.2 51H51.7C53.7 51 55.2 51.5 56.4 52.5C57.5 53.6 58 55 58 56.8C58 58.6 57.5 60.0999 56.4 61.0999C55.3 62.0999 53.8 62.5999 51.8 62.5999H46.2V51ZM190.3 15.5H19.7C5.99997 15.5 0.599976 25.5999 0.599976 48.1999C0.599976 70.8999 5.99997 80.8 19.7 80.8H190.4C204.1 80.8 209.5 70.6999 209.5 48.1999C209.4 25.5999 204.1 15.5 190.3 15.5ZM65.2 63.9C63.9 65.8 62.2 67.3 59.9 68.3C57.6 69.4 55.1 69.8 52.1 69.8H37.5V26.5H51.5C54.4 26.5 56.9 26.9 59.1 27.9C61.3 28.9 62.9 30.2 64.2 31.8C65.4 33.4 66 35.3999 66 37.6999C66 39.2999 65.7 40.7999 65.1 42.0999C64.6 43.3999 63.6 44.3999 62.5 45.1999C61.4 46.0999 60.1 46.4999 58.7 46.6999V46.8C60.3 46.9 61.7 47.6 63 48.5C64.3 49.5 65.3 50.6999 65.9 52.1999C66.5 53.6999 67 55.3 67 57.3C67 59.9 66.4 62.1 65.2 63.9ZM101.5 57.1999C101.5 61.2999 100.2 64.6 97.7 67C95.2 69.4 91.6 70.5999 87.2 70.5999C82.8 70.5999 79.3 69.4 76.8 67C74.3 64.6 73 61.3999 73 57.1999V26.5H81.9V57.1999C81.9 58.9999 82.3 60.5 83.3 61.4C84.3 62.4 85.6 62.8 87.3 62.8C88.9 62.8 90.2 62.4 91.2 61.4C92.2 60.4 92.6 58.9999 92.6 57.1999V26.5H101.5V57.1999ZM136.2 64.3999C135 66.2999 133.3 67.9 131 68.8C128.7 69.9 126.1 70.3999 123.1 70.3999C120.1 70.3999 117.4 69.9 115.1 68.8C112.8 67.7 111.1 66.1999 109.8 64.1999C108.5 62.1999 108 60 108 57.3H116.7C116.7 58.9 117.2 60.1999 118.4 61.1999C119.6 62.1999 121.1 62.5999 123.2 62.5999C125.1 62.5999 126.7 62.1999 127.8 61.1999C128.9 60.1999 129.4 59 129.4 57.5C129.4 56.3 129.1 55.0999 128.3 54.0999C127.5 53.0999 126.6 52.4999 125.2 52.0999L119.9 50.8C116.5 50 113.8 48.3999 111.8 46.0999C109.7 43.7999 108.8 41.1 108.8 37.9C108.8 35.3 109.3 33.1 110.5 31.3C111.6 29.5 113.2 27.9 115.4 27C117.6 26 120.1 25.5 123 25.5C125.9 25.5 128.4 26 130.6 27C132.8 28 134.4 29.5 135.6 31.3C136.8 33.1 137.3 35.4 137.3 37.9H128.6C128.6 36.4 128.1 35.2 127.1 34.3C126.1 33.4 124.7 33 123 33C121.3 33 120 33.4 119 34.3C118 35.2 117.6 36.2999 117.6 37.6999C117.6 38.8999 117.9 39.8 118.7 40.5C119.5 41.3 120.4 41.7 121.7 42L127.1 43.3C130.6 44.1 133.3 45.6999 135.2 48.1999C137.1 50.6999 138.2 53.7 138.2 57.3C138 60.2 137.3 62.4999 136.2 64.3999ZM163 54.5V70H154.1V54.5L141.6 26.5H150.9L156.4 39.5999C156.9 40.8999 157.5 42.2999 157.8 43.6999C158.2 45.0999 158.6 46.4 158.7 47.3C158.8 47 158.8 46.7 158.9 46.3C159.1 45.6 159.3 44.6999 159.5 43.6999C159.7 42.5999 160.1 41.5999 160.4 40.5999C160.5 40.1999 160.6 39.9 160.8 39.5L166.1 26.4H175.4L163 54.5ZM45.7 1.69995C50.8 1.69995 52.4 3.29995 52.4 8.39995V10.4H23.7V8.39995C23.7 3.29995 25.3 1.69995 30.4 1.69995H45.7ZM186.7 8.39995C186.7 3.29995 185.1 1.69995 180 1.69995H164.4C159.3 1.69995 157.7 3.29995 157.7 8.39995V10.4H186.7V8.39995ZM137.6 0.199951C142.7 0.199951 144.3 1.79995 144.3 6.89995V10.4H65.7V6.89995C65.7 1.79995 67.4 0.199951 72.4 0.199951H137.6Z" fill="black"></path></svg> 