<?xml version="1.0" encoding="UTF-8"?> <svg xmlns="http://www.w3.org/2000/svg" width="65" height="65" viewBox="0 0 65 65" fill="none"><g opacity="0.7"><path d="M55.2613 10.1883C55.0072 10.0563 54.692 10.1553 54.56 10.4111L53.692 12.0876C53.2432 12.9539 53.0633 13.9226 53.1706 14.8912L53.4065 17.0232C53.5501 18.3235 53.3092 19.6254 52.7069 20.7871C52.5749 21.0429 52.6739 21.3564 52.9296 21.4884C53.1854 21.6204 53.4989 21.5214 53.631 21.2656C54.3273 19.9208 54.6062 18.4142 54.4395 16.9093L54.2035 14.7773C54.1194 14.0133 54.2613 13.2477 54.6144 12.5662L55.4824 10.8896C55.6144 10.6339 55.5154 10.3203 55.2596 10.1883H55.2613Z" fill="black" stroke="black" stroke-width="0.495039" stroke-miterlimit="10" stroke-linecap="round"></path><path d="M50.9887 20.0843C50.7346 19.9523 50.4557 19.8682 50.1637 19.8368C49.0663 19.7164 48.0614 20.3814 47.7033 21.378C47.5532 21.2411 47.3865 21.119 47.2033 21.0233C46.9542 20.8946 46.677 20.8087 46.3816 20.7757C45.7595 20.7081 45.1473 20.8863 44.6588 21.279C44.5747 21.3467 44.4971 21.4226 44.4229 21.5001C44.2051 21.1751 43.9113 20.9012 43.5566 20.718C43.3074 20.5893 43.0302 20.5035 42.7348 20.4705C42.4493 20.4391 42.1936 20.6454 42.1622 20.9309C42.1308 21.2163 42.3371 21.4721 42.6226 21.5035C42.9691 21.5414 43.281 21.7114 43.4988 21.9836C43.7166 22.2559 43.8173 22.5958 43.7793 22.9424L43.2364 27.9158C43.1985 28.2624 43.0285 28.5743 42.7562 28.7921C42.484 29.0099 42.144 29.1105 41.7975 29.0726C41.451 29.0346 41.1391 28.8647 40.9213 28.5924C40.7035 28.3201 40.6028 27.9802 40.6408 27.6337L40.9378 24.911C40.9692 24.6255 40.7629 24.3697 40.4774 24.3384C40.1919 24.307 39.9362 24.5133 39.9048 24.7988L39.6078 27.5215C39.5401 28.1436 39.7184 28.7558 40.1111 29.2442C40.5038 29.7326 41.0616 30.0396 41.6853 30.1072C42.3074 30.1749 42.9196 29.9967 43.408 29.6039C43.4361 29.5808 43.4625 29.5561 43.4906 29.5313C43.8453 30.1831 44.5021 30.6584 45.2958 30.7442C46.5565 30.8811 47.6951 29.9868 47.87 28.7393C48.2149 29.0346 48.6489 29.2327 49.134 29.2855C49.7561 29.3531 50.3683 29.1749 50.8567 28.7822C51.3452 28.3894 51.6521 27.8317 51.7197 27.2079L52.2428 22.4226C52.3105 21.8005 52.1323 21.1883 51.7395 20.6998C51.5316 20.4408 51.2775 20.2329 50.9904 20.0843H50.9887ZM45.4063 29.7095C45.2413 29.6914 45.0879 29.6435 44.9493 29.5726C44.4839 29.3317 44.1902 28.8218 44.2496 28.2706L44.8288 22.9655C44.8668 22.6189 45.0367 22.3071 45.309 22.0892C45.5813 21.8714 45.9212 21.7708 46.2677 21.8087C46.6142 21.8467 46.9261 22.0166 47.1439 22.2889C47.3618 22.5612 47.4624 22.9011 47.4245 23.2476L46.8453 28.5528C46.7677 29.269 46.1209 29.7871 45.4063 29.7079V29.7095ZM51.2066 22.3087L50.6835 27.0941C50.6455 27.4406 50.4755 27.7525 50.2033 27.9703C49.931 28.1881 49.5911 28.2888 49.2445 28.2508C49.0795 28.2327 48.9261 28.1848 48.7875 28.1139C48.3221 27.8729 48.0284 27.3631 48.0878 26.8119L48.6109 22.0265C48.6885 21.3104 49.3353 20.7922 50.0498 20.8715C50.3963 20.9094 50.7082 21.0794 50.926 21.3516C51.1438 21.6239 51.2445 21.9638 51.2066 22.3104V22.3087Z" fill="black" stroke="black" stroke-width="0.495039" stroke-miterlimit="10" stroke-linecap="round"></path><path d="M36.9758 21.8696L39.1787 23.6831C39.4609 23.9158 39.8305 24.0099 40.1903 23.9439C40.55 23.8762 40.8602 23.6551 41.0384 23.335L41.2892 22.8861C41.9658 21.6799 41.7315 20.1799 40.7166 19.2393L39.5302 18.1387C39.3091 17.9341 39.2761 17.5942 39.451 17.3499L40.0038 16.581C40.0599 16.5034 40.1639 16.4836 40.2414 16.5364C40.979 17.0331 42.4625 17.9374 44.1077 18.4011C46.1934 18.9885 47.9046 18.7196 49.1917 17.5991C49.4079 17.411 49.431 17.0826 49.2429 16.8665C49.0547 16.6503 48.7264 16.6272 48.5102 16.8153C47.5036 17.6899 46.1175 17.8879 44.3898 17.3994C42.8849 16.9754 41.5087 16.1355 40.8223 15.6734C40.2761 15.3054 39.5451 15.4358 39.1589 15.9721L38.6061 16.741C38.1243 17.411 38.2167 18.3384 38.8223 18.8994L40.0087 20.0001C40.6688 20.6122 40.8223 21.5891 40.3817 22.3762L40.1309 22.8251C40.0929 22.8944 40.0302 22.9142 39.9972 22.9208C39.9642 22.9274 39.8998 22.9307 39.8388 22.8795L36.1689 19.8581C35.5847 19.3763 35.3983 18.5611 35.7151 17.873L38.4081 12.0283C38.517 11.7874 38.7249 11.5992 38.9758 11.5151C40.0417 11.157 42.0434 10.4937 43.4641 10.0712C44.6737 9.7115 45.6885 8.91284 46.3205 7.8188C46.3238 7.8122 46.3287 7.80395 46.332 7.79735L47.0053 6.49705C47.1373 6.24128 47.0383 5.92775 46.7825 5.79574C46.5268 5.66373 46.2132 5.76274 46.0812 6.01851L45.4146 7.30726C44.9146 8.16368 44.1176 8.79073 43.1687 9.0729C41.7315 9.50028 39.7183 10.1669 38.6457 10.5267C38.121 10.7032 37.6903 11.0927 37.4626 11.5926L34.7712 17.4341C34.2564 18.5496 34.56 19.8763 35.5088 20.6568L36.1573 21.1898L31.7796 29.6451C31.1855 30.7935 31.636 32.211 32.7845 32.805C33.933 33.3991 35.3504 32.9486 35.9445 31.8001L39.055 25.792C39.187 25.5362 39.088 25.2227 38.8322 25.0907C38.5764 24.9587 38.2629 25.0577 38.1309 25.3135L35.0204 31.3216C34.6887 31.9602 33.9 32.211 33.2614 31.881C32.6228 31.5493 32.3719 30.7605 32.702 30.1219L36.9775 21.863L36.9758 21.8696Z" fill="black" stroke="black" stroke-width="0.495039" stroke-miterlimit="10" stroke-linecap="round"></path><path d="M43.5489 42.5264H40.945V37.8401C40.945 37.51 40.8163 37.1998 40.582 36.9655L39.813 36.1965C39.5836 35.9672 39.2635 35.8335 38.9384 35.8335H26.3133C25.9833 35.8335 25.6714 35.9622 25.4387 36.1965L24.6698 36.9655C24.4371 37.1982 24.3068 37.51 24.3068 37.8401V42.5264H21.7029C21.3844 42.5264 21.127 42.7855 21.127 43.1023C21.127 43.4191 21.386 43.6782 21.7029 43.6782H43.5489C43.8674 43.6782 44.1248 43.4191 44.1248 43.1023C44.1248 42.7855 43.8657 42.5264 43.5489 42.5264ZM25.4618 42.5264V37.8401C25.4618 37.8252 25.4701 37.8137 25.4784 37.8005H39.7751C39.7817 37.8137 39.7916 37.8252 39.7916 37.8401V42.5264H25.4618Z" fill="black" stroke="black" stroke-width="0.495039" stroke-miterlimit="10" stroke-linecap="round"></path><path d="M28.072 29.6814C27.7535 29.6814 27.4961 29.4223 27.4961 29.1055V25.528C27.4961 25.2096 27.7552 24.9521 28.072 24.9521C28.3888 24.9521 28.6479 25.2112 28.6479 25.528V29.1055C28.6479 29.424 28.3888 29.6814 28.072 29.6814Z" fill="black" stroke="black" stroke-width="0.495039" stroke-miterlimit="10" stroke-linecap="round"></path><path d="M24.4717 33.2822H20.8943C20.5758 33.2822 20.3184 33.0231 20.3184 32.7063C20.3184 32.3894 20.5774 32.1304 20.8943 32.1304H24.4717C24.7902 32.1304 25.0476 32.3894 25.0476 32.7063C25.0476 33.0231 24.7886 33.2822 24.4717 33.2822Z" fill="black" stroke="black" stroke-width="0.495039" stroke-miterlimit="10" stroke-linecap="round"></path><path d="M25.5242 30.7373C25.3774 30.7373 25.2289 30.6812 25.1167 30.569L21.389 26.8414C21.1646 26.617 21.1646 26.2506 21.389 26.0262C21.6134 25.8018 21.9798 25.8018 22.2042 26.0262L25.9318 29.7539C26.1562 29.9783 26.1562 30.3446 25.9318 30.569C25.8196 30.6812 25.6711 30.7373 25.5242 30.7373Z" fill="black" stroke="black" stroke-width="0.495039" stroke-miterlimit="10" stroke-linecap="round"></path></g><g opacity="0.7"><path d="M54.3164 26.2515C54.823 28.1425 55.0936 30.1293 55.0936 32.1804" stroke="black" stroke-width="1.65013" stroke-miterlimit="10" stroke-linecap="round"></path><path d="M10.9531 23.9826C14.2468 15.425 22.5453 9.35254 32.2629 9.35254C33.1276 9.35254 33.9807 9.40039 34.8206 9.49445" stroke="black" stroke-width="1.65013" stroke-miterlimit="10" stroke-linecap="round"></path><path d="M9.43555 32.1807C9.43555 44.7876 19.6564 55.0085 32.2634 55.0085C41.9563 55.0085 50.2383 48.9658 53.5484 40.4429" stroke="black" stroke-width="1.65013" stroke-miterlimit="10" stroke-linecap="round"></path><path d="M9.07022 27.7268L6.01254 33.022C5.84917 33.3042 6.05379 33.6573 6.37886 33.6573H12.4942C12.821 33.6573 13.0239 33.3042 12.8606 33.022L9.80288 27.7268C9.63951 27.4446 9.23193 27.4446 9.07022 27.7268Z" fill="black"></path><path d="M55.4603 36.7L58.5081 31.4212C58.6698 31.1391 58.4668 30.7876 58.1417 30.7876H52.0461C51.7211 30.7876 51.5181 31.1391 51.6798 31.4212L54.7276 36.7C54.8893 36.9822 55.2969 36.9822 55.4586 36.7H55.4603Z" fill="black"></path></g><g opacity="0.35"><path d="M1.55773 33.7385C0.69801 33.7385 0 33.0388 0 32.1808C0 31.3227 0.69966 30.623 1.55773 30.623C2.41579 30.623 3.11545 31.3211 3.11545 32.1808C3.11545 33.0405 2.41579 33.7385 1.55773 33.7385Z" fill="black"></path><path d="M1.5569 33.3921C2.22583 33.3921 2.76809 32.8498 2.76809 32.1809C2.76809 31.512 2.22583 30.9697 1.5569 30.9697C0.887978 30.9697 0.345703 31.512 0.345703 32.1809C0.345703 32.8498 0.887978 33.3921 1.5569 33.3921Z" fill="black"></path><path d="M62.8038 33.7385C61.9441 33.7385 61.2461 33.0388 61.2461 32.1808C61.2461 31.3227 61.9457 30.623 62.8038 30.623C63.6619 30.623 64.3615 31.3211 64.3615 32.1808C64.3615 33.0405 63.6619 33.7385 62.8038 33.7385Z" fill="black"></path><path d="M62.803 33.3921C63.4719 33.3921 64.0142 32.8498 64.0142 32.1809C64.0142 31.512 63.4719 30.9697 62.803 30.9697C62.1341 30.9697 61.5918 31.512 61.5918 32.1809C61.5918 32.8498 62.1341 33.3921 62.803 33.3921Z" fill="black"></path><path d="M32.1808 64.3615C33.0411 64.3615 33.7385 63.6641 33.7385 62.8038C33.7385 61.9435 33.0411 61.2461 32.1808 61.2461C31.3205 61.2461 30.623 61.9435 30.623 62.8038C30.623 63.6641 31.3205 64.3615 32.1808 64.3615Z" fill="black"></path><path d="M32.1799 64.0147C32.8489 64.0147 33.3911 63.4724 33.3911 62.8035C33.3911 62.1346 32.8489 61.5923 32.1799 61.5923C31.511 61.5923 30.9688 62.1346 30.9688 62.8035C30.9688 63.4724 31.511 64.0147 32.1799 64.0147Z" fill="black"></path><path d="M32.1847 3.11544C33.045 3.11544 33.7424 2.41803 33.7424 1.55772C33.7424 0.697415 33.045 0 32.1847 0C31.3244 0 30.627 0.697415 30.627 1.55772C30.627 2.41803 31.3244 3.11544 32.1847 3.11544Z" fill="black"></path><path d="M32.1819 2.76907C32.8508 2.76907 33.3931 2.2268 33.3931 1.55787C33.3931 0.88895 32.8508 0.34668 32.1819 0.34668C31.513 0.34668 30.9707 0.88895 30.9707 1.55787C30.9707 2.2268 31.513 2.76907 32.1819 2.76907Z" fill="black"></path><path d="M1.43359 40.4195L3.77513 39.7925" stroke="black" stroke-miterlimit="10" stroke-linecap="round"></path><path d="M4.61523 48.0979L6.71255 46.8867" stroke="black" stroke-miterlimit="10" stroke-linecap="round"></path><path d="M9.67383 54.6899L11.3867 52.9771" stroke="black" stroke-miterlimit="10" stroke-linecap="round"></path><path d="M16.2656 59.7498L17.4768 57.6509" stroke="black" stroke-miterlimit="10" stroke-linecap="round"></path><path d="M23.9453 62.9292L24.5724 60.5894" stroke="black" stroke-miterlimit="10" stroke-linecap="round"></path><path d="M40.4239 62.9292L39.7969 60.5894" stroke="black" stroke-miterlimit="10" stroke-linecap="round"></path><path d="M48.1018 59.7498L46.8906 57.6509" stroke="black" stroke-miterlimit="10" stroke-linecap="round"></path><path d="M54.695 54.6899L52.9805 52.9771" stroke="black" stroke-miterlimit="10" stroke-linecap="round"></path><path d="M59.7536 48.0979L57.6562 46.8867" stroke="black" stroke-miterlimit="10" stroke-linecap="round"></path><path d="M62.9333 40.4195L60.5918 39.7925" stroke="black" stroke-miterlimit="10" stroke-linecap="round"></path><path d="M62.9333 23.9414L60.5918 24.5685" stroke="black" stroke-miterlimit="10" stroke-linecap="round"></path><path d="M59.7536 16.2637L57.6562 17.4749" stroke="black" stroke-miterlimit="10" stroke-linecap="round"></path><path d="M40.4239 1.43066L39.7969 3.7722" stroke="black" stroke-miterlimit="10" stroke-linecap="round"></path><path d="M23.9453 1.43066L24.5724 3.7722" stroke="black" stroke-miterlimit="10" stroke-linecap="round"></path><path d="M16.2656 4.61035L17.4768 6.70931" stroke="black" stroke-miterlimit="10" stroke-linecap="round"></path><path d="M9.67383 9.66943L11.3867 11.3839" stroke="black" stroke-miterlimit="10" stroke-linecap="round"></path><path d="M4.61523 16.2637L6.71255 17.4749" stroke="black" stroke-miterlimit="10" stroke-linecap="round"></path><path d="M1.43359 23.9414L3.77513 24.5685" stroke="black" stroke-miterlimit="10" stroke-linecap="round"></path></g></svg> 