<?xml version="1.0" encoding="UTF-8"?> <svg xmlns="http://www.w3.org/2000/svg" width="21" height="24" viewBox="0 0 21 24" fill="none"><path d="M19.1753 18.1026C19.3165 17.7602 18.9218 17.4439 18.6159 17.653C16.3677 19.198 13.2621 19.8933 9.96826 19.8933C6.67443 19.8933 3.65507 19.2163 1.41474 17.7157C1.10627 17.5092 0.71676 17.8281 0.857924 18.1706C2.30355 21.6134 5.50328 23.9453 10.0022 23.9453C14.5012 23.9453 17.7428 21.5821 19.1753 18.1026Z" fill="black"></path><path d="M5.68015 5.95152C6.17946 5.92015 6.74673 5.95936 7.2774 6.06654C7.43164 6.09791 7.47346 6.29659 7.35321 6.39854C6.47224 7.15665 5.82654 8.06376 5.39259 9.10419C5.2462 9.47017 5.49977 9.74989 5.74812 9.9355C6.06705 10.1734 6.44871 10.2231 6.72581 9.79433C7.13362 9.12772 7.73749 8.48202 8.39626 8.0533C8.62892 7.89384 8.87204 7.76052 9.123 7.65072C9.2354 7.60105 9.37134 7.67425 9.38964 7.79711C9.54387 8.78265 9.52558 9.88321 9.47329 10.7956C9.43408 11.1589 9.76608 11.3132 10.1294 11.4125C11.162 11.6478 11.0758 10.5028 11.2588 9.8257C11.3659 9.26104 11.4601 8.699 11.5123 8.13434C11.5254 7.9984 11.6718 7.91475 11.7894 7.98011C12.5371 8.40098 13.1854 9.00486 13.6559 9.71329C13.9043 10.1603 14.3487 10.1133 14.6859 9.92504C14.9735 9.76296 15.1878 9.51984 15.0414 9.10419C14.6415 8.07422 14.0062 7.15403 13.2037 6.41423C13.0913 6.30966 13.1331 6.11883 13.2847 6.08484C13.7448 5.9855 14.2154 5.93845 14.665 5.94629C15.0807 5.9855 15.329 5.69272 15.3578 5.19341C15.41 4.30983 14.2677 4.30199 13.6246 4.19219C12.7541 4.10331 11.8391 4.14514 10.9738 4.36473C10.9241 2.29954 9.92293 1.28264 8.7544 0.634325C8.13223 0.320626 7.65645 1.23558 8.26817 1.56758C9.24063 2.23942 9.66935 3.19881 9.63014 4.51635C9.61184 4.51112 9.59093 4.50066 9.57002 4.49543C8.2002 4.08763 6.82254 4.1007 5.44226 4.46406C5.03184 4.57647 4.96387 4.90063 4.99786 5.23524C5.03445 5.59599 5.2096 5.9672 5.67231 5.94891L5.68015 5.95152Z" fill="black"></path><path d="M0.525446 15.8849C0.857444 16.1594 1.24172 16.4287 1.67567 16.6848C1.87174 16.8025 2.12531 16.6613 2.12531 16.4313V16.0287C2.12531 15.6418 2.34751 15.4823 2.8259 15.4823C3.30429 15.4823 3.5265 15.6418 3.5265 16.0287C3.5265 16.0287 3.5265 16.7763 3.5265 17.2338C3.5265 17.4456 3.65459 17.6364 3.85065 17.7096C4.33689 17.89 4.85188 18.0521 5.39301 18.1932C5.55508 18.235 5.71716 18.1096 5.71716 17.9423V17.2181C5.71716 16.8312 5.93152 16.6718 6.41776 16.6718C6.90399 16.6718 7.11835 16.8312 7.11835 17.2181V18.1043C7.11835 18.3605 7.30657 18.5827 7.56014 18.6141C7.97579 18.669 8.40452 18.7108 8.84108 18.737C9.09727 18.7526 9.30901 18.5487 9.30901 18.2926V16.0235C9.30901 15.6366 9.53122 15.4771 10.0096 15.4771C10.488 15.4771 10.7102 15.6366 10.7102 16.0235V18.2873C10.7102 18.5435 10.9219 18.7474 11.1781 18.7291C11.6147 18.7004 12.0434 18.6585 12.4591 18.601C12.7126 18.567 12.8983 18.3448 12.8983 18.0913V17.2129C12.8983 16.826 13.1205 16.6665 13.5988 16.6665C14.0772 16.6665 14.2994 16.826 14.2994 17.2129V17.9187C14.2994 18.086 14.4615 18.2115 14.6236 18.1697C15.1647 18.0259 15.6771 17.8612 16.1607 17.6782C16.3594 17.6024 16.4875 17.4116 16.4875 17.1972V16.0208C16.4875 15.634 16.7097 15.4745 17.1881 15.4745C17.6665 15.4745 17.8887 15.634 17.8887 16.0208V16.3816C17.8887 16.6116 18.1396 16.7554 18.3383 16.6352C18.7801 16.3685 19.1722 16.0862 19.5042 15.8039C19.7552 15.5921 19.9173 15.2941 19.9512 14.9673C19.9957 14.5438 20.0166 14.1151 20.0166 13.676C20.0166 10.3168 18.5788 8.02937 16.2548 6.69615C16.0562 6.58113 15.813 6.61511 15.6222 6.74059C15.6222 6.74059 15.617 6.7432 15.6144 6.74582C15.3634 6.91051 15.3007 7.26081 15.4575 7.51699C16.247 8.80055 16.5738 10.0632 15.2118 10.8344C14.8955 11.0147 14.553 11.1088 14.221 11.1088C13.5073 11.1088 13.1571 10.7768 12.8564 10.39C12.6604 10.139 12.2656 10.2253 12.2003 10.5363C11.965 11.6526 11.6121 12.4891 10.3887 12.4891C10.2318 12.4891 10.0697 12.4708 9.90243 12.4316C9.88674 12.429 9.87106 12.4238 9.85537 12.4185C8.51692 12.0473 8.40452 11.3049 8.43066 10.3847C8.44111 10.0214 7.97841 9.85928 7.76405 10.1521C7.36147 10.701 7.02947 11.1611 6.21908 11.1611C5.84264 11.1611 5.46359 11.0278 5.12113 10.7742C3.92646 9.88542 4.20356 8.78225 4.9669 7.58496C5.13943 7.31309 5.08454 6.93927 4.81005 6.77457C4.74992 6.74059 4.69503 6.69876 4.64013 6.65694C4.45191 6.50793 4.19572 6.45826 3.98398 6.57067C1.51883 7.89082 0 10.2226 0 13.6838C0 14.1491 0.0235274 14.6092 0.0731964 15.0562C0.10718 15.3804 0.274486 15.6758 0.52806 15.8849H0.525446Z" fill="black"></path></svg> 