<?xml version="1.0" encoding="UTF-8"?> <svg xmlns="http://www.w3.org/2000/svg" width="38" height="38" viewBox="0 0 38 38" fill="none"><path d="M19.2316 0.833984C14.1339 0.833984 13.4941 0.855944 11.492 0.945741C9.49372 1.03592 8.12974 1.34768 6.93625 1.80514C5.70172 2.27759 4.65448 2.9096 3.61118 3.93814C2.56709 4.96633 1.92575 5.99834 1.44477 7.21458C0.979414 8.39112 0.662658 9.73567 0.572731 11.7042C0.483186 13.6772 0.459717 14.3081 0.459717 19.3318C0.459717 24.3555 0.482403 24.984 0.573112 26.9571C0.665024 28.9264 0.98138 30.2706 1.44515 31.4467C1.92497 32.6633 2.56629 33.6954 3.60999 34.7235C4.65294 35.7525 5.70016 36.386 6.93391 36.8585C8.12816 37.3159 9.49255 37.6277 11.4904 37.7179C13.4926 37.8076 14.1319 37.8296 19.2293 37.8296C24.3274 37.8296 24.9652 37.8077 26.9673 37.7179C28.9656 37.6277 30.3311 37.3159 31.5254 36.8585C32.7595 36.386 33.8052 35.7525 34.8481 34.7235C35.8922 33.6954 36.5336 32.6634 37.0145 31.4471C37.476 30.2706 37.7927 28.926 37.8866 26.9575C37.9765 24.9844 38 24.3555 38 19.3318C38 14.3081 37.9765 13.6776 37.8866 11.7045C37.7927 9.73528 37.476 8.39112 37.0145 7.21497C36.5336 5.99834 35.8922 4.96631 34.8481 3.93814C33.804 2.9092 32.7599 2.2772 31.5242 1.80512C30.3276 1.34768 28.9628 1.03592 26.9646 0.945741C24.9624 0.855944 24.325 0.833984 19.2257 0.833984H19.2316ZM17.5477 4.16745C18.0475 4.16668 18.6051 4.16745 19.2316 4.16745C24.2433 4.16745 24.8373 4.18518 26.8164 4.27381C28.6465 4.35629 29.6397 4.65763 30.3014 4.91082C31.1774 5.24609 31.8019 5.64689 32.4584 6.2943C33.1154 6.94174 33.5221 7.55833 33.8631 8.42155C34.12 9.07283 34.4262 10.0517 34.5095 11.8552C34.5994 13.8052 34.619 14.391 34.619 19.3276C34.619 24.2642 34.5994 24.85 34.5095 26.7999C34.4258 28.6034 34.12 29.5823 33.8631 30.2336C33.5229 31.0968 33.1154 31.7115 32.4584 32.3585C31.8015 33.0059 31.1777 33.4067 30.3014 33.742C29.6405 33.9963 28.6465 34.2969 26.8164 34.3794C24.8377 34.468 24.2433 34.4873 19.2316 34.4873C14.2195 34.4873 13.6255 34.468 11.6468 34.3794C9.81673 34.2962 8.82347 33.9948 8.16142 33.7416C7.28547 33.4063 6.65978 33.0055 6.00283 32.3581C5.34587 31.7107 4.93919 31.0957 4.59818 30.232C4.34126 29.5808 4.03507 28.6019 3.95179 26.7984C3.86184 24.8484 3.84385 24.2626 3.84385 19.3229C3.84385 14.3833 3.86184 13.8006 3.95179 11.8506C4.03547 10.047 4.34126 9.06822 4.59818 8.41617C4.93838 7.55293 5.34587 6.93634 6.00283 6.28892C6.65978 5.64149 7.28547 5.24071 8.16142 4.90467C8.82307 4.65031 9.81673 4.34974 11.6468 4.26687C13.3784 4.18979 14.0494 4.16668 17.5478 4.16281L17.5477 4.16745ZM29.2511 7.23885C28.0075 7.23885 26.9986 8.23196 26.9986 9.45781C26.9986 10.6833 28.0075 11.6776 29.2511 11.6776C30.4946 11.6776 31.5035 10.6833 31.5035 9.45781C31.5035 8.23234 30.4946 7.2381 29.251 7.2381L29.2511 7.23885ZM19.2316 9.8324C13.9083 9.8324 9.59227 14.0857 9.59227 19.3318C9.59227 24.5779 13.9083 28.8293 19.2316 28.8293C24.5549 28.8293 28.8694 24.5779 28.8694 19.3318C28.8694 14.0857 24.5546 9.8324 19.2312 9.8324H19.2316ZM19.2316 13.1659C22.6869 13.1659 25.4884 15.9263 25.4884 19.3318C25.4884 22.737 22.6869 25.4977 19.2316 25.4977C15.7759 25.4977 12.9748 22.737 12.9748 19.3318C12.9748 15.9263 15.7759 13.1659 19.2316 13.1659Z" fill="white"></path></svg> 