<?xml version="1.0" encoding="UTF-8"?> <svg xmlns="http://www.w3.org/2000/svg" width="33" height="38" viewBox="0 0 33 38" fill="none"><path d="M23.6869 12.5099C26.2041 14.3078 29.2867 15.3657 32.6161 15.3657V10.3247C30.7576 9.92908 29.1124 8.95838 27.8754 7.60819C25.7579 6.28757 24.2324 4.10886 23.7851 1.55884H19.1173V27.1375C19.1068 30.1194 16.6856 32.5339 13.6997 32.5339C11.9403 32.5339 10.3771 31.6956 9.38715 30.3971C7.61936 29.5053 6.40709 27.6745 6.40709 25.5603C6.40709 22.5701 8.83231 20.1456 11.8246 20.1456C12.3979 20.1456 12.9504 20.2348 13.4687 20.3992V15.3032C7.04299 15.4359 1.87512 20.6836 1.87512 27.1376C1.87512 30.3594 3.16204 33.28 5.25072 35.4141C7.13502 36.6786 9.40334 37.4162 11.8438 37.4162C18.3846 37.4162 23.687 32.1165 23.687 25.5789V12.5099H23.6869Z" fill="white"></path><path d="M32.6161 10.3249V8.96187C30.9402 8.96441 29.2972 8.49531 27.8753 7.60821C29.134 8.98554 30.7914 9.93525 32.6161 10.3249ZM23.785 1.55899C23.7424 1.31527 23.7096 1.06996 23.6868 0.823702V0H17.242V25.5789C17.2317 28.5604 14.8106 30.975 11.8245 30.975C10.9478 30.975 10.1201 30.767 9.3871 30.3974C10.3771 31.6958 11.9402 32.5339 13.6997 32.5339C16.6852 32.5339 19.1069 30.1197 19.1173 27.1377V1.55899H23.785ZM13.469 15.3034V13.8523C12.9304 13.7787 12.3875 13.7418 11.8439 13.7421C5.30256 13.742 0 19.0417 0 25.5789C0 29.6773 2.084 33.2893 5.2508 35.414C3.16212 33.2801 1.8752 30.3593 1.8752 27.1376C1.8752 20.6838 7.04293 15.436 13.469 15.3034Z" fill="white"></path></svg> 