<?xml version="1.0" encoding="UTF-8"?> <svg xmlns="http://www.w3.org/2000/svg" width="122" height="86" viewBox="0 0 122 86" fill="none"><path fill-rule="evenodd" clip-rule="evenodd" d="M108.21 2.54C113.44 3.94 117.55 8.05 118.95 13.28H118.94C121.48 22.75 121.48 42.52 121.48 42.52C121.48 42.52 121.48 62.29 118.94 71.76C117.54 76.99 113.43 81.1 108.2 82.5C98.73 85.04 60.74 85.04 60.74 85.04C60.74 85.04 22.75 85.04 13.28 82.5C8.05 81.1 3.94 76.99 2.54 71.76C0 62.29 0 42.52 0 42.52C0 42.52 0 22.75 2.54 13.28C3.94 8.05 8.05 3.94 13.28 2.54C22.75 0 60.74 0 60.74 0C60.74 0 98.73 0 108.21 2.54ZM80.16 42.52L48.59 60.74V24.3L80.16 42.52Z" fill="white"></path></svg> 